<?xml version="1.0" encoding="UTF-8"?>
<!DOCTYPE svg PUBLIC "-//W3C//DTD SVG 1.1//EN" "http://www.w3.org/Graphics/SVG/1.1/DTD/svg11.dtd">
<svg xmlns="http://www.w3.org/2000/svg" version="1.1" width="100.8px" height="135.36px" style="shape-rendering:geometricPrecision; text-rendering:geometricPrecision; image-rendering:optimizeQuality; fill-rule:evenodd; clip-rule:evenodd" viewBox="0 0 168 225.6" xmlns:xlink="http://www.w3.org/1999/xlink"><g transform="scale(0.8)">
<g><path style="opacity:0.38" fill="#c9d8ee" d="M 81.5,4.5 C 100.082,2.35816 118.416,4.1915 136.5,10C 139.756,11.116 142.422,12.9493 144.5,15.5C 143.833,15.5 143.167,15.5 142.5,15.5C 136.276,11.0645 129.276,8.23119 121.5,7C 108.238,5.04867 94.9046,4.21534 81.5,4.5 Z"/></g>
<g><path style="opacity:1" fill="#b9c6dc" d="M 75.5,5.5 C 75.0825,6.22158 74.4158,6.72158 73.5,7C 74.7932,7.49001 76.1266,7.65668 77.5,7.5C 74.5,8.16667 71.5,8.83333 68.5,9.5C 64.4862,9.66551 60.4862,9.49885 56.5,9C 62.6828,7.10125 69.0162,5.93459 75.5,5.5 Z"/></g>
<g><path style="opacity:0.279" fill="#d6e6f9" d="M 77.5,7.5 C 87.5056,7.33352 97.5056,7.50019 107.5,8C 112.434,8.1161 117.1,8.94944 121.5,10.5C 103.869,8.34757 86.2027,8.01424 68.5,9.5C 71.5,8.83333 74.5,8.16667 77.5,7.5 Z"/></g>
<g><path style="opacity:1" fill="#889cbf" d="M 79.5,4.5 C 80.1667,4.5 80.8333,4.5 81.5,4.5C 94.9046,4.21534 108.238,5.04867 121.5,7C 129.276,8.23119 136.276,11.0645 142.5,15.5C 141.167,15.5 139.833,15.5 138.5,15.5C 135.352,12.0742 131.352,10.7409 126.5,11.5C 124.585,11.7845 122.919,11.4511 121.5,10.5C 117.1,8.94944 112.434,8.1161 107.5,8C 97.5056,7.50019 87.5056,7.33352 77.5,7.5C 76.1266,7.65668 74.7932,7.49001 73.5,7C 74.4158,6.72158 75.0825,6.22158 75.5,5.5C 77.099,5.76781 78.4324,5.43448 79.5,4.5 Z"/></g>
<g><path style="opacity:0.522" fill="#d3def0" d="M 126.5,11.5 C 131.352,10.7409 135.352,12.0742 138.5,15.5C 134.353,14.3398 130.353,13.0065 126.5,11.5 Z"/></g>
<g><path style="opacity:0.98" fill="#e2e7ef" d="M 79.5,4.5 C 78.4324,5.43448 77.099,5.76781 75.5,5.5C 69.0162,5.93459 62.6828,7.10125 56.5,9C 60.4862,9.49885 64.4862,9.66551 68.5,9.5C 59.002,11.7337 49.3353,13.7337 39.5,15.5C 37.4534,15.5111 35.4534,15.8444 33.5,16.5C 32.2867,16.2528 31.62,15.5862 31.5,14.5C 46.8331,8.49915 62.8331,5.16581 79.5,4.5 Z"/></g>
<g><path style="opacity:0.906" fill="#bbc2cc" d="M 138.5,15.5 C 139.833,15.5 141.167,15.5 142.5,15.5C 143.167,15.5 143.833,15.5 144.5,15.5C 147.558,17.2431 149.558,19.9098 150.5,23.5C 150.662,25.5273 150.495,27.5273 150,29.5C 149,26.8333 148,24.1667 147,21.5C 146.292,20.6195 145.458,19.9528 144.5,19.5C 142.147,18.6597 140.147,17.3264 138.5,15.5 Z"/></g>
<g><path style="opacity:0.385" fill="#f2f3f4" d="M 31.5,14.5 C 31.62,15.5862 32.2867,16.2528 33.5,16.5C 35.4534,15.8444 37.4534,15.5111 39.5,15.5C 29.834,18.5809 20.6673,22.9143 12,28.5C 8.9344,35.1561 7.76773,42.1561 8.5,49.5C 7.37936,47.0458 6.54603,44.3791 6,41.5C 5.36454,46.9465 5.86454,52.2799 7.5,57.5C 0.28622,42.0879 3.95289,29.5879 18.5,20C 22.6535,17.6732 26.9868,15.8399 31.5,14.5 Z"/></g>
<g><path style="opacity:0.201" fill="#f6f7f8" d="M 144.5,19.5 C 145.458,19.9528 146.292,20.6195 147,21.5C 148,24.1667 149,26.8333 150,29.5C 150.495,27.5273 150.662,25.5273 150.5,23.5C 151.5,34.589 147.166,43.2557 137.5,49.5C 137.38,48.4138 136.713,47.7472 135.5,47.5C 134.151,47.8457 132.817,48.179 131.5,48.5C 137.807,44.3585 142.974,39.0251 147,32.5C 148.034,27.7419 147.201,23.4086 144.5,19.5 Z"/></g>
<g><path style="opacity:0.976" fill="#e0e0e1" d="M 137.5,49.5 C 132.738,54.2183 127.072,56.0516 120.5,55C 118.285,57.2415 117.952,59.7415 119.5,62.5C 117.744,61.4479 117.077,59.7812 117.5,57.5C 116.209,57.2627 115.209,57.596 114.5,58.5C 113.596,59.209 113.263,60.209 113.5,61.5C 110.615,61.1936 107.948,61.5269 105.5,62.5C 104.833,62.5 104.167,62.5 103.5,62.5C 102.833,62.5 102.167,62.5 101.5,62.5C 104.845,60.783 108.511,60.1164 112.5,60.5C 112.406,57.4594 113.906,55.7928 117,55.5C 117.757,53.6854 118.59,52.0188 119.5,50.5C 123.464,50.9931 127.464,50.3265 131.5,48.5C 132.817,48.179 134.151,47.8457 135.5,47.5C 136.713,47.7472 137.38,48.4138 137.5,49.5 Z"/></g>
<g><path style="opacity:1" fill="#5a5a5a" d="M 119.5,50.5 C 121.346,50.2222 122.68,50.8888 123.5,52.5C 122.311,53.4287 120.978,53.762 119.5,53.5C 119.5,52.5 119.5,51.5 119.5,50.5 Z"/></g>
<g><path style="opacity:1" fill="#b1bdd1" d="M 8.5,49.5 C 11.4678,58.7687 16.4678,66.7687 23.5,73.5C 20.6057,72.1177 18.1057,70.1177 16,67.5C 15.8333,67.8333 15.6667,68.1667 15.5,68.5C 19.5219,72.8535 23.5219,77.1869 27.5,81.5C 18.2855,75.6192 11.6188,67.6192 7.5,57.5C 5.86454,52.2799 5.36454,46.9465 6,41.5C 6.54603,44.3791 7.37936,47.0458 8.5,49.5 Z"/></g>
<g><path style="opacity:0.89" fill="#5a5a57" d="M 114.5,58.5 C 114.5,59.8333 114.5,61.1667 114.5,62.5C 111.5,62.5 108.5,62.5 105.5,62.5C 107.948,61.5269 110.615,61.1936 113.5,61.5C 113.263,60.209 113.596,59.209 114.5,58.5 Z"/></g>
<g><path style="opacity:0.725" fill="#838481" d="M 114.5,58.5 C 115.209,57.596 116.209,57.2627 117.5,57.5C 117.077,59.7812 117.744,61.4479 119.5,62.5C 122.198,62.8449 124.198,64.1782 125.5,66.5C 122.743,64.9143 119.743,63.9143 116.5,63.5C 116.923,61.2188 116.256,59.5521 114.5,58.5 Z"/></g>
<g><path style="opacity:1" fill="#0c0a09" d="M 114.5,58.5 C 116.256,59.5521 116.923,61.2188 116.5,63.5C 119.743,63.9143 122.743,64.9143 125.5,66.5C 126.419,69.0892 128.086,71.0892 130.5,72.5C 130.517,74.5648 130.85,76.5648 131.5,78.5C 131.5,79.8333 131.5,81.1667 131.5,82.5C 129.833,82.5 128.167,82.5 126.5,82.5C 122.14,81.9933 117.807,81.3266 113.5,80.5C 110.781,79.087 107.781,78.4203 104.5,78.5C 100.709,78.3413 97.0424,77.6746 93.5,76.5C 91.2139,74.9253 90.8806,72.9253 92.5,70.5C 95.6521,66.9983 99.3188,64.3316 103.5,62.5C 104.167,62.5 104.833,62.5 105.5,62.5C 108.5,62.5 111.5,62.5 114.5,62.5C 114.5,61.1667 114.5,59.8333 114.5,58.5 Z"/></g>
<g><path style="opacity:0.533" fill="#999795" d="M 101.5,62.5 C 102.167,62.5 102.833,62.5 103.5,62.5C 99.3188,64.3316 95.6521,66.9983 92.5,70.5C 94.2329,66.4351 97.2329,63.7684 101.5,62.5 Z"/></g>
<g><path style="opacity:0.682" fill="#979998" d="M 125.5,66.5 C 127.914,67.9108 129.581,69.9108 130.5,72.5C 128.086,71.0892 126.419,69.0892 125.5,66.5 Z"/></g>
<g><path style="opacity:1" fill="#716e6a" d="M 92.5,70.5 C 90.8806,72.9253 91.2139,74.9253 93.5,76.5C 92.5,76.5 91.5,76.5 90.5,76.5C 90.5,75.5 90.5,74.5 90.5,73.5C 90.427,71.9731 91.0937,70.9731 92.5,70.5 Z"/></g>
<g><path style="opacity:0.439" fill="#c7d1e7" d="M 23.5,73.5 C 26.4323,74.7997 28.7656,76.7997 30.5,79.5C 28.4048,78.588 26.4048,77.4213 24.5,76C 23.7476,75.3292 23.4142,74.4959 23.5,73.5 Z"/></g>
<g><path style="opacity:0.192" fill="#bcb9b5" d="M 90.5,73.5 C 90.5,74.5 90.5,75.5 90.5,76.5C 91.5,76.5 92.5,76.5 93.5,76.5C 97.0424,77.6746 100.709,78.3413 104.5,78.5C 105.833,79.1667 107.167,79.8333 108.5,80.5C 107.167,80.5 105.833,80.5 104.5,80.5C 101.14,80.3841 97.8067,80.0508 94.5,79.5C 88.511,77.1273 82.1776,76.1273 75.5,76.5C 75.2627,77.791 75.596,78.791 76.5,79.5C 76.5,79.8333 76.5,80.1667 76.5,80.5C 74.2554,79.1722 73.9221,77.3388 75.5,75C 80.1992,74.9483 84.8658,75.4483 89.5,76.5C 89.2627,75.209 89.596,74.209 90.5,73.5 Z"/></g>
<g><path style="opacity:0.271" fill="#adadad" d="M 130.5,72.5 C 132.074,74.1016 132.741,76.1016 132.5,78.5C 132.167,78.5 131.833,78.5 131.5,78.5C 130.85,76.5648 130.517,74.5648 130.5,72.5 Z"/></g>
<g><path style="opacity:1" fill="#231f19" d="M 94.5,79.5 C 91.2869,79.19 88.2869,79.5233 85.5,80.5C 83.0504,80.298 80.717,80.6314 78.5,81.5C 78.5,80.1667 77.8333,79.5 76.5,79.5C 75.596,78.791 75.2627,77.791 75.5,76.5C 82.1776,76.1273 88.511,77.1273 94.5,79.5 Z"/></g>
<g><path style="opacity:1" fill="#6b6059" d="M 104.5,78.5 C 107.781,78.4203 110.781,79.087 113.5,80.5C 111.833,80.5 110.167,80.5 108.5,80.5C 107.167,79.8333 105.833,79.1667 104.5,78.5 Z"/></g>
<g><path style="opacity:1" fill="#8593b6" d="M 23.5,73.5 C 23.4142,74.4959 23.7476,75.3292 24.5,76C 26.4048,77.4213 28.4048,78.588 30.5,79.5C 31.1408,80.4822 31.8075,81.4822 32.5,82.5C 32.1667,82.8333 31.8333,83.1667 31.5,83.5C 30.3777,82.3698 29.0443,81.7031 27.5,81.5C 23.5219,77.1869 19.5219,72.8535 15.5,68.5C 15.6667,68.1667 15.8333,67.8333 16,67.5C 18.1057,70.1177 20.6057,72.1177 23.5,73.5 Z"/></g>
<g><path style="opacity:1" fill="#7b746e" d="M 104.5,80.5 C 105.833,80.5 107.167,80.5 108.5,80.5C 109.833,81.1667 111.167,81.8333 112.5,82.5C 109.505,82.7062 106.838,82.0395 104.5,80.5 Z"/></g>
<g><path style="opacity:0.702" fill="#8e7c71" d="M 76.5,79.5 C 77.8333,79.5 78.5,80.1667 78.5,81.5C 75.8333,84.8333 72.8333,87.8333 69.5,90.5C 71.8333,87.1667 74.1667,83.8333 76.5,80.5C 76.5,80.1667 76.5,79.8333 76.5,79.5 Z"/></g>
<g><path style="opacity:1" fill="#2e0c02" d="M 86.5,82.5 C 86.5,82.1667 86.5,81.8333 86.5,81.5C 91.8326,81.9332 97.166,82.4332 102.5,83C 104.744,83.0496 106.411,83.8829 107.5,85.5C 106.833,85.5 106.167,85.5 105.5,85.5C 100.638,84.1002 95.6376,83.4335 90.5,83.5C 89.2921,82.7659 87.9587,82.4326 86.5,82.5 Z"/></g>
<g><path style="opacity:1" fill="#4e4c4b" d="M 131.5,78.5 C 131.833,78.5 132.167,78.5 132.5,78.5C 132.5,80.1667 132.5,81.8333 132.5,83.5C 130.265,83.7947 128.265,83.4614 126.5,82.5C 128.167,82.5 129.833,82.5 131.5,82.5C 131.5,81.1667 131.5,79.8333 131.5,78.5 Z"/></g>
<g><path style="opacity:1" fill="#b0c0d8" d="M 30.5,79.5 C 34.0246,80.7589 37.0246,82.7589 39.5,85.5C 41.0938,86.983 42.7605,88.483 44.5,90C 41.3939,89.7942 38.3939,88.9608 35.5,87.5C 32.4669,85.984 29.8003,83.984 27.5,81.5C 29.0443,81.7031 30.3777,82.3698 31.5,83.5C 31.8333,83.1667 32.1667,82.8333 32.5,82.5C 31.8075,81.4822 31.1408,80.4822 30.5,79.5 Z"/></g>
<g><path style="opacity:1" fill="#884719" d="M 90.5,83.5 C 95.6376,83.4335 100.638,84.1002 105.5,85.5C 105.5,85.8333 105.5,86.1667 105.5,86.5C 101.541,85.4502 97.5414,84.9502 93.5,85C 94.6667,86.1667 95.8333,87.3333 97,88.5C 97.6877,89.3317 97.521,89.9984 96.5,90.5C 93.7915,88.7339 91.7915,86.4006 90.5,83.5 Z"/></g>
<g><path style="opacity:1" fill="#1a0d0b" d="M 85.5,80.5 C 88.2869,79.5233 91.2869,79.19 94.5,79.5C 97.8067,80.0508 101.14,80.3841 104.5,80.5C 106.838,82.0395 109.505,82.7062 112.5,82.5C 122.983,84.8179 133.65,86.8179 144.5,88.5C 144.5,89.8333 144.5,91.1667 144.5,92.5C 142.833,92.5 141.167,92.5 139.5,92.5C 138.833,92.8333 138.167,93.1667 137.5,93.5C 135.397,92.6496 133.397,91.6496 131.5,90.5C 126.936,89.7838 122.269,89.1171 117.5,88.5C 116.791,87.596 115.791,87.2627 114.5,87.5C 112.343,86.5933 110.01,85.9267 107.5,85.5C 106.411,83.8829 104.744,83.0496 102.5,83C 97.166,82.4332 91.8326,81.9332 86.5,81.5C 86.5,80.8333 86.1667,80.5 85.5,80.5 Z"/></g>
<g><path style="opacity:1" fill="#d08e49" d="M 86.5,82.5 C 87.9587,82.4326 89.2921,82.7659 90.5,83.5C 91.7915,86.4006 93.7915,88.7339 96.5,90.5C 97.521,89.9984 97.6877,89.3317 97,88.5C 95.8333,87.3333 94.6667,86.1667 93.5,85C 97.5414,84.9502 101.541,85.4502 105.5,86.5C 105.5,87.5 105.5,88.5 105.5,89.5C 102.918,89.0254 100.918,89.6921 99.5,91.5C 97.901,91.2322 96.5676,91.5655 95.5,92.5C 95.1667,92.5 94.8333,92.5 94.5,92.5C 90.7514,89.112 86.7514,85.9454 82.5,83C 83.7932,82.51 85.1266,82.3433 86.5,82.5 Z"/></g>
<g><path style="opacity:0.475" fill="#aaa5a7" d="M 132.5,78.5 C 133.468,80.6074 133.802,82.9407 133.5,85.5C 137.492,85.7642 141.159,86.7642 144.5,88.5C 133.65,86.8179 122.983,84.8179 112.5,82.5C 111.167,81.8333 109.833,81.1667 108.5,80.5C 110.167,80.5 111.833,80.5 113.5,80.5C 117.807,81.3266 122.14,81.9933 126.5,82.5C 128.265,83.4614 130.265,83.7947 132.5,83.5C 132.5,81.8333 132.5,80.1667 132.5,78.5 Z"/></g>
<g><path style="opacity:1" fill="#49372f" d="M 105.5,86.5 C 105.5,86.1667 105.5,85.8333 105.5,85.5C 106.167,85.5 106.833,85.5 107.5,85.5C 110.01,85.9267 112.343,86.5933 114.5,87.5C 112.821,87.2852 111.821,87.9519 111.5,89.5C 109.121,90.5669 108.121,89.5669 108.5,86.5C 107.5,86.5 106.5,86.5 105.5,86.5 Z"/></g>
<g><path style="opacity:1" fill="#8d6858" d="M 114.5,87.5 C 115.791,87.2627 116.791,87.596 117.5,88.5C 116.455,89.8776 115.122,90.8776 113.5,91.5C 114.234,90.2921 114.567,88.9587 114.5,87.5 Z"/></g>
<g><path style="opacity:1" fill="#954714" d="M 86.5,81.5 C 86.5,81.8333 86.5,82.1667 86.5,82.5C 85.1266,82.3433 83.7932,82.51 82.5,83C 86.7514,85.9454 90.7514,89.112 94.5,92.5C 94.5,92.8333 94.5,93.1667 94.5,93.5C 93.5,92.1667 92.5,92.1667 91.5,93.5C 88.8675,89.9918 85.5342,87.1584 81.5,85C 80.4232,84.5304 79.4232,84.6971 78.5,85.5C 80.2814,82.6452 82.948,81.3118 86.5,81.5 Z"/></g>
<g><path style="opacity:1" fill="#957764" d="M 105.5,86.5 C 106.5,86.5 107.5,86.5 108.5,86.5C 108.121,89.5669 109.121,90.5669 111.5,89.5C 111.328,90.4916 111.662,91.1583 112.5,91.5C 111.766,92.7079 111.433,94.0413 111.5,95.5C 111.5,97.5 111.5,99.5 111.5,101.5C 111.167,101.5 110.833,101.5 110.5,101.5C 110.81,98.2869 110.477,95.2869 109.5,92.5C 108.167,91.5 106.833,90.5 105.5,89.5C 105.5,88.5 105.5,87.5 105.5,86.5 Z"/></g>
<g><path style="opacity:1" fill="#dec4b9" d="M 114.5,87.5 C 114.567,88.9587 114.234,90.2921 113.5,91.5C 113.167,91.5 112.833,91.5 112.5,91.5C 111.662,91.1583 111.328,90.4916 111.5,89.5C 111.821,87.9519 112.821,87.2852 114.5,87.5 Z"/></g>
<g><path style="opacity:1" fill="#9f450b" d="M 76.5,87.5 C 81.0497,90.6058 86.0497,92.9391 91.5,94.5C 91.1667,95.1667 90.8333,95.8333 90.5,96.5C 90.1667,96.5 89.8333,96.5 89.5,96.5C 84.13,94.1459 78.7966,91.8126 73.5,89.5C 74.2905,88.5987 75.2905,87.9321 76.5,87.5 Z"/></g>
<g><path style="opacity:1" fill="#d5803a" d="M 91.5,93.5 C 91.5,93.8333 91.5,94.1667 91.5,94.5C 86.0497,92.9391 81.0497,90.6058 76.5,87.5C 76.8333,86.5 77.5,85.8333 78.5,85.5C 79.4232,84.6971 80.4232,84.5304 81.5,85C 85.5342,87.1584 88.8675,89.9918 91.5,93.5 Z"/></g>
<g><path style="opacity:0.298" fill="#c3a9a9" d="M 69.5,90.5 C 69.573,92.0269 68.9063,93.0269 67.5,93.5C 67.427,91.9731 68.0937,90.9731 69.5,90.5 Z"/></g>
<g><path style="opacity:0.514" fill="#a49d99" d="M 144.5,88.5 C 146.599,89.3697 146.932,90.703 145.5,92.5C 144.271,93.2811 142.938,93.7811 141.5,94C 142.823,94.8159 143.489,95.9826 143.5,97.5C 141.413,96.4154 140.08,94.7488 139.5,92.5C 141.167,92.5 142.833,92.5 144.5,92.5C 144.5,91.1667 144.5,89.8333 144.5,88.5 Z"/></g>
<g><path style="opacity:1" fill="#daccc7" d="M 99.5,91.5 C 100.962,92.8007 102.296,94.3007 103.5,96C 103.361,97.301 102.695,98.1344 101.5,98.5C 99.8061,96.1394 97.8061,94.1394 95.5,92.5C 96.5676,91.5655 97.901,91.2322 99.5,91.5 Z"/></g>
<g><path style="opacity:1" fill="#7a250e" d="M 125.5,91.5 C 125.5,93.1667 125.5,94.8333 125.5,96.5C 124.352,95.105 123.352,95.2716 122.5,97C 118.017,97.8524 116.35,96.1857 117.5,92C 120.146,91.5026 122.813,91.3359 125.5,91.5 Z"/></g>
<g><path style="opacity:1" fill="#bb7841" d="M 131.5,90.5 C 133.397,91.6496 135.397,92.6496 137.5,93.5C 138.6,94.6049 139.267,95.9382 139.5,97.5C 136.209,94.1896 132.209,92.523 127.5,92.5C 127.365,94.5542 128.032,96.2209 129.5,97.5C 128.041,97.4326 126.708,97.7659 125.5,98.5C 125.5,97.8333 125.5,97.1667 125.5,96.5C 125.5,94.8333 125.5,93.1667 125.5,91.5C 127.379,90.6586 129.379,90.3253 131.5,90.5 Z"/></g>
<g><path style="opacity:1" fill="#cc8334" d="M 139.5,97.5 C 141.326,99.1475 142.66,101.147 143.5,103.5C 140.514,100.913 137.514,98.2463 134.5,95.5C 133.657,97.2312 133.657,99.0646 134.5,101C 134.316,102.376 133.649,103.209 132.5,103.5C 132.66,101.801 132.494,100.134 132,98.5C 131.329,97.7476 130.496,97.4142 129.5,97.5C 128.032,96.2209 127.365,94.5542 127.5,92.5C 132.209,92.523 136.209,94.1896 139.5,97.5 Z"/></g>
<g><path style="opacity:0.99" fill="#d2dae4" d="M 39.5,85.5 C 47.5679,89.6169 55.7345,93.6169 64,97.5C 64.3826,96.944 64.8826,96.6107 65.5,96.5C 65.233,98.9653 64.5664,101.299 63.5,103.5C 63.1667,103.5 62.8333,103.5 62.5,103.5C 62.5858,102.504 62.2524,101.671 61.5,101C 52.0484,97.7761 43.3818,93.2761 35.5,87.5C 38.3939,88.9608 41.3939,89.7942 44.5,90C 42.7605,88.483 41.0938,86.983 39.5,85.5 Z"/></g>
<g><path style="opacity:0.188" fill="#cfc5c3" d="M 67.5,93.5 C 67.573,95.0269 66.9063,96.0269 65.5,96.5C 65.427,94.9731 66.0937,93.9731 67.5,93.5 Z"/></g>
<g><path style="opacity:1" fill="#a99797" d="M 94.5,92.5 C 94.8333,92.5 95.1667,92.5 95.5,92.5C 97.8061,94.1394 99.8061,96.1394 101.5,98.5C 99.5742,97.7577 97.7409,96.7577 96,95.5C 95.3333,96.1667 95.3333,96.8333 96,97.5C 97.2547,98.2106 98.4214,99.044 99.5,100C 97.6194,99.904 95.9527,100.071 94.5,100.5C 94.1667,100.5 93.8333,100.5 93.5,100.5C 93.298,98.0504 93.6314,95.717 94.5,93.5C 94.5,93.1667 94.5,92.8333 94.5,92.5 Z"/></g>
<g><path style="opacity:1" fill="#612313" d="M 117.5,88.5 C 122.269,89.1171 126.936,89.7838 131.5,90.5C 129.379,90.3253 127.379,90.6586 125.5,91.5C 122.813,91.3359 120.146,91.5026 117.5,92C 116.35,96.1857 118.017,97.8524 122.5,97C 123.352,95.2716 124.352,95.105 125.5,96.5C 125.5,97.1667 125.5,97.8333 125.5,98.5C 125.5,98.8333 125.5,99.1667 125.5,99.5C 124.18,100.942 122.514,101.608 120.5,101.5C 117.482,99.4742 114.482,97.4742 111.5,95.5C 111.433,94.0413 111.766,92.7079 112.5,91.5C 112.833,91.5 113.167,91.5 113.5,91.5C 115.122,90.8776 116.455,89.8776 117.5,88.5 Z"/></g>
<g><path style="opacity:1" fill="#993b0d" d="M 71.5,92.5 C 75.0352,95.4937 79.0352,97.9937 83.5,100C 78.1771,100.499 72.8437,100.666 67.5,100.5C 68.8527,97.7946 70.1861,95.1279 71.5,92.5 Z"/></g>
<g><path style="opacity:1" fill="#faf8f0" d="M 105.5,89.5 C 106.833,90.5 108.167,91.5 109.5,92.5C 109.784,95.7766 109.451,98.9433 108.5,102C 106.316,102.867 104.149,103.701 102,104.5C 99.863,103.923 97.6963,103.59 95.5,103.5C 94.8902,102.609 94.5569,101.609 94.5,100.5C 95.9527,100.071 97.6194,99.904 99.5,100C 98.4214,99.044 97.2547,98.2106 96,97.5C 95.3333,96.8333 95.3333,96.1667 96,95.5C 97.7409,96.7577 99.5742,97.7577 101.5,98.5C 102.695,98.1344 103.361,97.301 103.5,96C 102.296,94.3007 100.962,92.8007 99.5,91.5C 100.918,89.6921 102.918,89.0254 105.5,89.5 Z"/></g>
<g><path style="opacity:0.149" fill="#cfcac3" d="M 143.5,97.5 C 144.906,97.9731 145.573,98.9731 145.5,100.5C 144.094,100.027 143.427,99.0269 143.5,97.5 Z"/></g>
<g><path style="opacity:1" fill="#210d06" d="M 111.5,95.5 C 114.482,97.4742 117.482,99.4742 120.5,101.5C 120.5,102.167 120.5,102.833 120.5,103.5C 120.158,104.338 119.492,104.672 118.5,104.5C 116.685,105.63 114.685,106.296 112.5,106.5C 111.549,105.081 111.216,103.415 111.5,101.5C 111.5,99.5 111.5,97.5 111.5,95.5 Z"/></g>
<g><path style="opacity:1" fill="#5c3f33" d="M 139.5,92.5 C 140.08,94.7488 141.413,96.4154 143.5,97.5C 143.427,99.0269 144.094,100.027 145.5,100.5C 146.779,101.715 147.779,101.382 148.5,99.5C 149.449,98.8476 150.615,98.5143 152,98.5C 154.221,98.3932 156.054,99.0598 157.5,100.5C 157.427,102.027 158.094,103.027 159.5,103.5C 160.94,104.946 161.607,106.779 161.5,109C 161.486,110.385 161.152,111.551 160.5,112.5C 160.167,112.5 159.833,112.5 159.5,112.5C 158.686,110.369 158.186,108.036 158,105.5C 157.617,104.944 157.117,104.611 156.5,104.5C 156.027,103.094 155.027,102.427 153.5,102.5C 150.458,100.98 147.792,101.647 145.5,104.5C 144.817,104.137 144.15,103.804 143.5,103.5C 142.66,101.147 141.326,99.1475 139.5,97.5C 139.267,95.9382 138.6,94.6049 137.5,93.5C 138.167,93.1667 138.833,92.8333 139.5,92.5 Z"/></g>
<g><path style="opacity:0.435" fill="#b79e9e" d="M 148.5,99.5 C 147.779,101.382 146.779,101.715 145.5,100.5C 146.391,99.8902 147.391,99.5569 148.5,99.5 Z"/></g>
<g><path style="opacity:1" fill="#4c392e" d="M 125.5,99.5 C 126.209,100.404 127.209,100.737 128.5,100.5C 128.778,102.346 128.111,103.68 126.5,104.5C 124.591,103.652 122.591,103.318 120.5,103.5C 120.5,102.833 120.5,102.167 120.5,101.5C 122.514,101.608 124.18,100.942 125.5,99.5 Z"/></g>
<g><path style="opacity:1" fill="#743f14" d="M 153.5,102.5 C 150.167,103.5 146.833,104.5 143.5,105.5C 143.5,104.833 143.5,104.167 143.5,103.5C 144.15,103.804 144.817,104.137 145.5,104.5C 147.792,101.647 150.458,100.98 153.5,102.5 Z"/></g>
<g><path style="opacity:0.392" fill="#ae9da1" d="M 157.5,100.5 C 158.906,100.973 159.573,101.973 159.5,103.5C 158.094,103.027 157.427,102.027 157.5,100.5 Z"/></g>
<g><path style="opacity:1" fill="#fbedcf" d="M 109.5,92.5 C 110.477,95.2869 110.81,98.2869 110.5,101.5C 110.5,101.833 110.5,102.167 110.5,102.5C 108.873,104.464 106.873,105.797 104.5,106.5C 100.956,106.868 97.9557,105.868 95.5,103.5C 97.6963,103.59 99.863,103.923 102,104.5C 104.149,103.701 106.316,102.867 108.5,102C 109.451,98.9433 109.784,95.7766 109.5,92.5 Z"/></g>
<g><path style="opacity:1" fill="#e8d9c2" d="M 129.5,97.5 C 130.496,97.4142 131.329,97.7476 132,98.5C 132.494,100.134 132.66,101.801 132.5,103.5C 131.373,104.122 130.373,104.955 129.5,106C 131.113,108.228 131.78,110.728 131.5,113.5C 130.761,113.369 130.094,113.536 129.5,114C 130.791,115.292 130.791,116.458 129.5,117.5C 127.246,116.585 125.246,115.252 123.5,113.5C 123.167,113.667 122.833,113.833 122.5,114C 124.017,115.685 125.684,117.185 127.5,118.5C 125.671,119.282 124.171,118.616 123,116.5C 122.601,116.728 122.435,117.062 122.5,117.5C 121.522,117.189 120.855,116.522 120.5,115.5C 122.172,110.595 125.005,109.595 129,112.5C 129.5,112.167 130,111.833 130.5,111.5C 129.926,109.941 129.26,108.441 128.5,107C 125.964,106.661 123.464,106.161 121,105.5C 118.405,107.22 116.905,109.72 116.5,113C 117.178,116.188 118.512,119.021 120.5,121.5C 119.833,121.5 119.167,121.5 118.5,121.5C 118.167,120.5 117.5,119.833 116.5,119.5C 115.738,117.044 115.071,114.544 114.5,112C 115.436,109.295 116.769,106.795 118.5,104.5C 119.492,104.672 120.158,104.338 120.5,103.5C 122.591,103.318 124.591,103.652 126.5,104.5C 128.111,103.68 128.778,102.346 128.5,100.5C 127.209,100.737 126.209,100.404 125.5,99.5C 125.5,99.1667 125.5,98.8333 125.5,98.5C 126.708,97.7659 128.041,97.4326 129.5,97.5 Z"/></g>
<g><path style="opacity:1" fill="#d6a266" d="M 93.5,100.5 C 93.8333,100.5 94.1667,100.5 94.5,100.5C 94.5569,101.609 94.8902,102.609 95.5,103.5C 97.9557,105.868 100.956,106.868 104.5,106.5C 101.552,107.179 98.5516,107.512 95.5,107.5C 94.3882,105.401 93.7215,103.067 93.5,100.5 Z"/></g>
<g><path style="opacity:1" fill="#da8d39" d="M 110.5,102.5 C 110.66,104.199 110.494,105.866 110,107.5C 107.277,110.557 104.944,113.89 103,117.5C 102.184,116.177 101.017,115.511 99.5,115.5C 97.1093,113.385 95.7759,110.719 95.5,107.5C 98.5516,107.512 101.552,107.179 104.5,106.5C 106.873,105.797 108.873,104.464 110.5,102.5 Z"/></g>
<g><path style="opacity:0.384" fill="#9f9283" d="M 62.5,103.5 C 62.8333,103.5 63.1667,103.5 63.5,103.5C 63.7406,105.898 63.0739,107.898 61.5,109.5C 61.5172,107.435 61.8505,105.435 62.5,103.5 Z"/></g>
<g><path style="opacity:1" fill="#b7692e" d="M 89.5,96.5 C 89.8333,96.5 90.1667,96.5 90.5,96.5C 90.1347,103.726 91.8013,110.393 95.5,116.5C 94.5041,116.586 93.6708,116.252 93,115.5C 90.1313,109.478 88.9646,103.145 89.5,96.5 Z"/></g>
<g><path style="opacity:1" fill="#c88a3b" d="M 153.5,102.5 C 155.027,102.427 156.027,103.094 156.5,104.5C 158.057,108.274 157.39,111.608 154.5,114.5C 152.5,114.5 150.5,114.5 148.5,114.5C 154.465,114.196 156.465,111.196 154.5,105.5C 153.554,105.013 152.554,104.68 151.5,104.5C 149.289,105.685 146.955,106.685 144.5,107.5C 143.702,107.043 143.369,106.376 143.5,105.5C 146.833,104.5 150.167,103.5 153.5,102.5 Z"/></g>
<g><path style="opacity:1" fill="#843d16" d="M 67.5,100.5 C 66.3773,102.979 66.3773,105.312 67.5,107.5C 67.702,109.95 67.3686,112.283 66.5,114.5C 64.631,116.635 63.9644,119.302 64.5,122.5C 63.8401,121.036 63.5068,119.369 63.5,117.5C 63.9178,113.157 64.4178,108.824 65,104.5C 65.2004,102.68 66.0337,101.347 67.5,100.5 Z"/></g>
<g><path style="opacity:1" fill="#fbfaf2" d="M 122.5,117.5 C 123.6,118.605 124.267,119.938 124.5,121.5C 123.167,121.5 121.833,121.5 120.5,121.5C 118.512,119.021 117.178,116.188 116.5,113C 116.905,109.72 118.405,107.22 121,105.5C 123.464,106.161 125.964,106.661 128.5,107C 129.26,108.441 129.926,109.941 130.5,111.5C 130,111.833 129.5,112.167 129,112.5C 125.005,109.595 122.172,110.595 120.5,115.5C 120.855,116.522 121.522,117.189 122.5,117.5 Z"/></g>
<g><path style="opacity:1" fill="#ce9b51" d="M 132.5,103.5 C 132.342,106.902 132.676,110.236 133.5,113.5C 132.833,113.5 132.167,113.5 131.5,113.5C 131.78,110.728 131.113,108.228 129.5,106C 130.373,104.955 131.373,104.122 132.5,103.5 Z"/></g>
<g><path style="opacity:1" fill="#9b380b" d="M 67.5,107.5 C 72.781,108.556 78.1144,109.223 83.5,109.5C 78.2026,111.703 72.5359,113.37 66.5,114.5C 67.3686,112.283 67.702,109.95 67.5,107.5 Z"/></g>
<g><path style="opacity:1" fill="#aa5815" d="M 110.5,101.5 C 110.833,101.5 111.167,101.5 111.5,101.5C 111.216,103.415 111.549,105.081 112.5,106.5C 112.5,106.833 112.5,107.167 112.5,107.5C 109.474,111.205 106.808,115.205 104.5,119.5C 102.111,119.021 100.444,117.688 99.5,115.5C 101.017,115.511 102.184,116.177 103,117.5C 104.944,113.89 107.277,110.557 110,107.5C 110.494,105.866 110.66,104.199 110.5,102.5C 110.5,102.167 110.5,101.833 110.5,101.5 Z"/></g>
<g><path style="opacity:1" fill="#561a06" d="M 94.5,93.5 C 93.6314,95.717 93.298,98.0504 93.5,100.5C 93.7215,103.067 94.3882,105.401 95.5,107.5C 95.7759,110.719 97.1093,113.385 99.5,115.5C 100.444,117.688 102.111,119.021 104.5,119.5C 105.343,121.173 106.676,122.34 108.5,123C 114.091,123.841 119.424,123.341 124.5,121.5C 126.485,120.953 128.151,119.953 129.5,118.5C 130.492,118.328 131.158,118.662 131.5,119.5C 131.5,120.167 131.5,120.833 131.5,121.5C 131.167,121.5 130.833,121.5 130.5,121.5C 126.844,123.321 123.177,124.987 119.5,126.5C 114.022,126.631 108.689,125.798 103.5,124C 100.964,121.295 98.2971,118.795 95.5,116.5C 91.8013,110.393 90.1347,103.726 90.5,96.5C 90.8333,95.8333 91.1667,95.1667 91.5,94.5C 91.5,94.1667 91.5,93.8333 91.5,93.5C 92.5,92.1667 93.5,92.1667 94.5,93.5 Z"/></g>
<g><path style="opacity:1" fill="#dcb07a" d="M 118.5,104.5 C 116.769,106.795 115.436,109.295 114.5,112C 115.071,114.544 115.738,117.044 116.5,119.5C 115.883,119.389 115.383,119.056 115,118.5C 114.082,114.72 113.249,111.054 112.5,107.5C 112.5,107.167 112.5,106.833 112.5,106.5C 114.685,106.296 116.685,105.63 118.5,104.5 Z"/></g>
<g><path style="opacity:1" fill="#5f3512" d="M 156.5,104.5 C 157.117,104.611 157.617,104.944 158,105.5C 158.186,108.036 158.686,110.369 159.5,112.5C 159.5,113.167 159.167,113.5 158.5,113.5C 157.167,113.833 155.833,114.167 154.5,114.5C 157.39,111.608 158.057,108.274 156.5,104.5 Z"/></g>
<g><path style="opacity:1" fill="#e28c2b" d="M 143.5,103.5 C 143.5,104.167 143.5,104.833 143.5,105.5C 143.369,106.376 143.702,107.043 144.5,107.5C 146.955,106.685 149.289,105.685 151.5,104.5C 152.554,104.68 153.554,105.013 154.5,105.5C 156.465,111.196 154.465,114.196 148.5,114.5C 148.167,115.167 147.833,115.833 147.5,116.5C 146.778,117.551 145.778,118.218 144.5,118.5C 140.422,117.626 136.755,115.959 133.5,113.5C 132.676,110.236 132.342,106.902 132.5,103.5C 133.649,103.209 134.316,102.376 134.5,101C 133.657,99.0646 133.657,97.2312 134.5,95.5C 137.514,98.2463 140.514,100.913 143.5,103.5 Z"/></g>
<g><path style="opacity:0.996" fill="#573c2e" d="M 158.5,113.5 C 158.5,114.167 158.5,114.833 158.5,115.5C 158.027,116.906 157.027,117.573 155.5,117.5C 153.833,117.5 152.167,117.5 150.5,117.5C 152.51,116.983 153.843,116.316 154.5,115.5C 154.5,115.167 154.5,114.833 154.5,114.5C 155.833,114.167 157.167,113.833 158.5,113.5 Z"/></g>
<g><path style="opacity:0.18" fill="#baaca0" d="M 159.5,112.5 C 159.833,112.5 160.167,112.5 160.5,112.5C 160.573,114.027 159.906,115.027 158.5,115.5C 158.5,114.833 158.5,114.167 158.5,113.5C 159.167,113.5 159.5,113.167 159.5,112.5 Z"/></g>
<g><path style="opacity:0.255" fill="#b4a79b" d="M 61.5,109.5 C 61.0009,118.366 62.0009,127.033 64.5,135.5C 60.6039,127.142 59.6039,118.475 61.5,109.5 Z"/></g>
<g><path style="opacity:1" fill="#dc8d33" d="M 112.5,107.5 C 113.249,111.054 114.082,114.72 115,118.5C 115.383,119.056 115.883,119.389 116.5,119.5C 117.5,119.833 118.167,120.5 118.5,121.5C 113.638,122.974 108.971,122.307 104.5,119.5C 106.808,115.205 109.474,111.205 112.5,107.5 Z"/></g>
<g><path style="opacity:1" fill="#3f1c15" d="M 154.5,115.5 C 153.843,116.316 152.51,116.983 150.5,117.5C 150.5,120.833 150.5,124.167 150.5,127.5C 149.662,127.842 149.328,128.508 149.5,129.5C 148.833,126.833 148.167,124.167 147.5,121.5C 147.5,120.833 147.5,120.167 147.5,119.5C 148.388,116.013 150.721,114.68 154.5,115.5 Z"/></g>
<g><path style="opacity:1" fill="#ae5411" d="M 131.5,113.5 C 132.167,113.5 132.833,113.5 133.5,113.5C 136.755,115.959 140.422,117.626 144.5,118.5C 145.506,119.396 145.506,120.062 144.5,120.5C 140.346,119.503 136.346,118.003 132.5,116C 131.748,115.329 131.414,114.496 131.5,113.5 Z"/></g>
<g><path style="opacity:1" fill="#e48928" d="M 88.5,109.5 C 86.2181,112.122 83.8848,114.788 81.5,117.5C 79.808,116.031 77.808,115.365 75.5,115.5C 72.5078,115.966 69.5078,116.299 66.5,116.5C 66.1485,119.073 66.6485,121.406 68,123.5C 70.0269,119.639 72.1936,119.639 74.5,123.5C 75.439,121.947 76.6057,120.613 78,119.5C 79.2613,119.759 80.2613,120.426 81,121.5C 81.9492,118.8 83.7825,117.967 86.5,119C 88.326,120.835 89.326,122.669 89.5,124.5C 85.531,123.67 81.531,123.004 77.5,122.5C 77.3343,126.846 77.501,131.179 78,135.5C 78.3333,135.833 78.6667,136.167 79,136.5C 79.2492,135.376 79.7492,134.376 80.5,133.5C 81.7112,134.274 81.7112,135.107 80.5,136C 82.9005,136.186 85.2338,136.686 87.5,137.5C 86.2643,139.311 86.2643,141.144 87.5,143C 87.1639,144.03 86.4972,144.53 85.5,144.5C 84.1667,144.5 82.8333,144.5 81.5,144.5C 79.8097,142.496 78.4764,140.163 77.5,137.5C 76.7435,136.227 76.0768,136.227 75.5,137.5C 74.5178,138.141 73.5178,138.807 72.5,139.5C 68.1337,135.964 66.3004,131.297 67,125.5C 66.1482,124.429 65.3149,123.429 64.5,122.5C 63.9644,119.302 64.631,116.635 66.5,114.5C 72.5359,113.37 78.2026,111.703 83.5,109.5C 80.0632,108.052 76.3966,106.719 72.5,105.5C 66.9636,106.91 66.2969,105.744 70.5,102C 76.0515,100.642 80.8848,101.809 85,105.5C 87.6406,105.74 88.1406,104.907 86.5,103C 87,101.5 87.5,100 88,98.5C 88.4986,102.152 88.6653,105.818 88.5,109.5 Z"/></g>
<g><path style="opacity:1" fill="#6d320e" d="M 148.5,114.5 C 150.5,114.5 152.5,114.5 154.5,114.5C 154.5,114.833 154.5,115.167 154.5,115.5C 150.721,114.68 148.388,116.013 147.5,119.5C 147.5,118.5 147.5,117.5 147.5,116.5C 147.833,115.833 148.167,115.167 148.5,114.5 Z"/></g>
<g><path style="opacity:0.204" fill="#b9acac" d="M 150.5,117.5 C 152.167,117.5 153.833,117.5 155.5,117.5C 154.432,118.434 153.099,118.768 151.5,118.5C 151.5,120.167 151.5,121.833 151.5,123.5C 151.768,125.099 151.434,126.432 150.5,127.5C 150.5,124.167 150.5,120.833 150.5,117.5 Z"/></g>
<g><path style="opacity:1" fill="#ac9d94" d="M 129.5,117.5 C 129.5,117.833 129.5,118.167 129.5,118.5C 128.151,119.953 126.485,120.953 124.5,121.5C 124.267,119.938 123.6,118.605 122.5,117.5C 122.435,117.062 122.601,116.728 123,116.5C 124.171,118.616 125.671,119.282 127.5,118.5C 125.684,117.185 124.017,115.685 122.5,114C 122.833,113.833 123.167,113.667 123.5,113.5C 125.246,115.252 127.246,116.585 129.5,117.5 Z"/></g>
<g><path style="opacity:1" fill="#dd8835" d="M 131.5,113.5 C 131.414,114.496 131.748,115.329 132.5,116C 136.346,118.003 140.346,119.503 144.5,120.5C 146.727,122.874 147.06,125.541 145.5,128.5C 140.851,125.526 136.184,122.526 131.5,119.5C 131.158,118.662 130.492,118.328 129.5,118.5C 129.5,118.167 129.5,117.833 129.5,117.5C 130.791,116.458 130.791,115.292 129.5,114C 130.094,113.536 130.761,113.369 131.5,113.5 Z"/></g>
<g><path style="opacity:1" fill="#a3653a" d="M 104.5,119.5 C 108.971,122.307 113.638,122.974 118.5,121.5C 119.167,121.5 119.833,121.5 120.5,121.5C 121.833,121.5 123.167,121.5 124.5,121.5C 119.424,123.341 114.091,123.841 108.5,123C 106.676,122.34 105.343,121.173 104.5,119.5 Z"/></g>
<g><path style="opacity:1" fill="#e58724" d="M 88.5,109.5 C 90.1632,111.493 91.3299,113.826 92,116.5C 93.1096,118.037 94.6096,118.703 96.5,118.5C 96.3433,119.873 96.51,121.207 97,122.5C 97.7175,121.549 98.5509,121.383 99.5,122C 101.31,124.066 103.31,125.9 105.5,127.5C 111.5,128.167 117.5,128.833 123.5,129.5C 126.102,134.371 128.436,139.371 130.5,144.5C 128.708,144.634 127.042,144.301 125.5,143.5C 125.5,142.833 125.5,142.167 125.5,141.5C 123.878,138.862 122.211,136.196 120.5,133.5C 119.109,132.355 117.776,132.355 116.5,133.5C 115.443,136.189 114.11,138.689 112.5,141C 116.036,139.94 118.37,141.273 119.5,145C 118.604,148.799 116.937,149.633 114.5,147.5C 114.167,148.333 113.833,149.167 113.5,150C 113.885,152.184 114.885,154.018 116.5,155.5C 116.333,156.167 116.167,156.833 116,157.5C 113.943,156.022 112.61,154.022 112,151.5C 110.951,152.517 109.784,152.684 108.5,152C 109.784,150.703 109.617,149.536 108,148.5C 107.667,148.833 107.333,149.167 107,149.5C 102.797,146.788 98.2969,144.788 93.5,143.5C 91.2348,147.077 88.5681,147.411 85.5,144.5C 86.4972,144.53 87.1639,144.03 87.5,143C 86.2643,141.144 86.2643,139.311 87.5,137.5C 85.2338,136.686 82.9005,136.186 80.5,136C 81.7112,135.107 81.7112,134.274 80.5,133.5C 79.7492,134.376 79.2492,135.376 79,136.5C 78.6667,136.167 78.3333,135.833 78,135.5C 77.501,131.179 77.3343,126.846 77.5,122.5C 81.531,123.004 85.531,123.67 89.5,124.5C 89.326,122.669 88.326,120.835 86.5,119C 83.7825,117.967 81.9492,118.8 81,121.5C 80.2613,120.426 79.2613,119.759 78,119.5C 76.6057,120.613 75.439,121.947 74.5,123.5C 72.1936,119.639 70.0269,119.639 68,123.5C 66.6485,121.406 66.1485,119.073 66.5,116.5C 69.5078,116.299 72.5078,115.966 75.5,115.5C 77.808,115.365 79.808,116.031 81.5,117.5C 83.8848,114.788 86.2181,112.122 88.5,109.5 Z"/></g>
<g><path style="opacity:1" fill="#a54c0d" d="M 131.5,119.5 C 136.184,122.526 140.851,125.526 145.5,128.5C 145.5,129.167 145.833,129.5 146.5,129.5C 146.5,130.167 146.5,130.833 146.5,131.5C 141.518,128.193 136.518,124.859 131.5,121.5C 131.5,120.833 131.5,120.167 131.5,119.5 Z"/></g>
<g><path style="opacity:1" fill="#a75218" d="M 130.5,121.5 C 134.019,127.696 138.686,133.029 144.5,137.5C 144.011,138.995 143.345,140.329 142.5,141.5C 142.649,140.448 142.483,139.448 142,138.5C 137.462,132.939 132.128,128.606 126,125.5C 123.863,126.077 121.696,126.41 119.5,126.5C 123.177,124.987 126.844,123.321 130.5,121.5 Z"/></g>
<g><path style="opacity:1" fill="#b06f3a" d="M 147.5,116.5 C 147.5,117.5 147.5,118.5 147.5,119.5C 147.5,120.167 147.5,120.833 147.5,121.5C 147.806,124.385 147.473,127.052 146.5,129.5C 145.833,129.5 145.5,129.167 145.5,128.5C 147.06,125.541 146.727,122.874 144.5,120.5C 145.506,120.062 145.506,119.396 144.5,118.5C 145.778,118.218 146.778,117.551 147.5,116.5 Z"/></g>
<g><path style="opacity:1" fill="#da8734" d="M 130.5,121.5 C 130.833,121.5 131.167,121.5 131.5,121.5C 136.518,124.859 141.518,128.193 146.5,131.5C 146.125,133.698 145.458,135.698 144.5,137.5C 138.686,133.029 134.019,127.696 130.5,121.5 Z"/></g>
<g><path style="opacity:0.18" fill="#c1b6ac" d="M 150.5,127.5 C 150.5,128.167 150.5,128.833 150.5,129.5C 150.333,133.673 149,137.34 146.5,140.5C 147.699,136.901 148.699,133.235 149.5,129.5C 149.328,128.508 149.662,127.842 150.5,127.5 Z"/></g>
<g><path style="opacity:1" fill="#de812f" d="M 73.5,89.5 C 78.7966,91.8126 84.13,94.1459 89.5,96.5C 88.9646,103.145 90.1313,109.478 93,115.5C 93.6708,116.252 94.5041,116.586 95.5,116.5C 98.2971,118.795 100.964,121.295 103.5,124C 108.689,125.798 114.022,126.631 119.5,126.5C 121.696,126.41 123.863,126.077 126,125.5C 132.128,128.606 137.462,132.939 142,138.5C 142.483,139.448 142.649,140.448 142.5,141.5C 141.89,142.391 141.557,143.391 141.5,144.5C 140.833,144.5 140.167,144.5 139.5,144.5C 136.202,139.868 132.536,135.534 128.5,131.5C 127.417,132.365 127.251,133.365 128,134.5C 130.798,139.101 133.298,143.768 135.5,148.5C 135.5,149.5 135.5,150.5 135.5,151.5C 134.833,151.5 134.5,151.833 134.5,152.5C 133.5,152.5 132.5,152.5 131.5,152.5C 130.22,148.917 128.22,145.917 125.5,143.5C 127.042,144.301 128.708,144.634 130.5,144.5C 128.436,139.371 126.102,134.371 123.5,129.5C 117.5,128.833 111.5,128.167 105.5,127.5C 103.31,125.9 101.31,124.066 99.5,122C 98.5509,121.383 97.7175,121.549 97,122.5C 96.51,121.207 96.3433,119.873 96.5,118.5C 94.6096,118.703 93.1096,118.037 92,116.5C 91.3299,113.826 90.1632,111.493 88.5,109.5C 88.6653,105.818 88.4986,102.152 88,98.5C 87.5,100 87,101.5 86.5,103C 88.1406,104.907 87.6406,105.74 85,105.5C 80.8848,101.809 76.0515,100.642 70.5,102C 66.2969,105.744 66.9636,106.91 72.5,105.5C 76.3966,106.719 80.0632,108.052 83.5,109.5C 78.1144,109.223 72.781,108.556 67.5,107.5C 66.3773,105.312 66.3773,102.979 67.5,100.5C 72.8437,100.666 78.1771,100.499 83.5,100C 79.0352,97.9937 75.0352,95.4937 71.5,92.5C 72.1667,91.5 72.8333,90.5 73.5,89.5 Z"/></g>
<g><path style="opacity:0.907" fill="#e3e7ed" d="M 151.5,123.5 C 164.627,126.728 175.961,133.061 185.5,142.5C 187.118,144.656 186.784,146.323 184.5,147.5C 174.993,138.993 164.16,132.66 152,128.5C 151.617,129.056 151.117,129.389 150.5,129.5C 150.5,128.833 150.5,128.167 150.5,127.5C 151.434,126.432 151.768,125.099 151.5,123.5 Z"/></g>
<g><path style="opacity:0.957" fill="#54311b" d="M 147.5,121.5 C 148.167,124.167 148.833,126.833 149.5,129.5C 148.699,133.235 147.699,136.901 146.5,140.5C 146.672,141.492 146.338,142.158 145.5,142.5C 143.241,143.344 142.241,145.011 142.5,147.5C 140.738,148.262 139.738,149.596 139.5,151.5C 138.089,153.914 136.089,155.581 133.5,156.5C 134.11,155.609 134.443,154.609 134.5,153.5C 134.5,153.167 134.5,152.833 134.5,152.5C 134.5,151.833 134.833,151.5 135.5,151.5C 137.263,148.98 139.263,146.647 141.5,144.5C 141.557,143.391 141.89,142.391 142.5,141.5C 143.345,140.329 144.011,138.995 144.5,137.5C 145.458,135.698 146.125,133.698 146.5,131.5C 146.5,130.833 146.5,130.167 146.5,129.5C 147.473,127.052 147.806,124.385 147.5,121.5 Z"/></g>
<g><path style="opacity:1" fill="#a9490b" d="M 81.5,144.5 C 85.002,148.87 89.6687,150.703 95.5,150C 91.0686,152.075 86.7353,151.742 82.5,149C 79.9174,145.932 77.5841,142.765 75.5,139.5C 75.5,138.833 75.5,138.167 75.5,137.5C 76.0768,136.227 76.7435,136.227 77.5,137.5C 78.4764,140.163 79.8097,142.496 81.5,144.5 Z"/></g>
<g><path style="opacity:0.227" fill="#b2a9a2" d="M 66.5,139.5 C 67.404,140.209 67.7373,141.209 67.5,142.5C 64.4824,142.704 61.4824,143.037 58.5,143.5C 61.4449,142.534 64.1116,141.2 66.5,139.5 Z"/></g>
<g><path style="opacity:1" fill="#9f3b0d" d="M 139.5,144.5 C 138.761,144.369 138.094,144.536 137.5,145C 136.915,146.302 136.249,147.469 135.5,148.5C 133.298,143.768 130.798,139.101 128,134.5C 127.251,133.365 127.417,132.365 128.5,131.5C 132.536,135.534 136.202,139.868 139.5,144.5 Z"/></g>
<g><path style="opacity:1" fill="#e08027" d="M 125.5,141.5 C 123.188,139.854 121.188,137.854 119.5,135.5C 119.167,136 118.833,136.5 118.5,137C 121.066,143.114 123.4,149.281 125.5,155.5C 125.5,156.5 125.5,157.5 125.5,158.5C 123.302,158.12 121.635,158.787 120.5,160.5C 119.833,160.5 119.167,160.5 118.5,160.5C 116.236,161.219 113.903,161.552 111.5,161.5C 108.447,161.111 105.78,161.777 103.5,163.5C 100.497,164.839 97.4971,166.172 94.5,167.5C 93.0937,167.027 92.427,166.027 92.5,164.5C 91.4391,162.468 89.7724,161.134 87.5,160.5C 84.6336,159.792 81.8003,159.125 79,158.5C 78.501,154.179 78.3343,149.846 78.5,145.5C 74.8208,144.744 73.8208,142.744 75.5,139.5C 77.5841,142.765 79.9174,145.932 82.5,149C 86.7353,151.742 91.0686,152.075 95.5,150C 89.6687,150.703 85.002,148.87 81.5,144.5C 82.8333,144.5 84.1667,144.5 85.5,144.5C 88.5681,147.411 91.2348,147.077 93.5,143.5C 98.2969,144.788 102.797,146.788 107,149.5C 107.333,149.167 107.667,148.833 108,148.5C 109.617,149.536 109.784,150.703 108.5,152C 109.784,152.684 110.951,152.517 112,151.5C 112.61,154.022 113.943,156.022 116,157.5C 116.167,156.833 116.333,156.167 116.5,155.5C 114.885,154.018 113.885,152.184 113.5,150C 113.833,149.167 114.167,148.333 114.5,147.5C 116.937,149.633 118.604,148.799 119.5,145C 118.37,141.273 116.036,139.94 112.5,141C 114.11,138.689 115.443,136.189 116.5,133.5C 117.776,132.355 119.109,132.355 120.5,133.5C 122.211,136.196 123.878,138.862 125.5,141.5 Z"/></g>
<g><path style="opacity:0.667" fill="#9b8483" d="M 58.5,143.5 C 57.1092,145.89 55.1092,147.557 52.5,148.5C 53.865,146.14 55.865,144.473 58.5,143.5 Z"/></g>
<g><path style="opacity:0.859" fill="#887669" d="M 145.5,142.5 C 145.25,144.674 144.25,146.341 142.5,147.5C 142.241,145.011 143.241,143.344 145.5,142.5 Z"/></g>
<g><path style="opacity:0.027" fill="#b6b1b1" d="M 163.5,144.5 C 165.5,144.5 166.5,145.5 166.5,147.5C 165.167,146.833 164.167,145.833 163.5,144.5 Z"/></g>
<g><path style="opacity:1" fill="#762f0e" d="M 139.5,144.5 C 140.167,144.5 140.833,144.5 141.5,144.5C 139.263,146.647 137.263,148.98 135.5,151.5C 135.5,150.5 135.5,149.5 135.5,148.5C 136.249,147.469 136.915,146.302 137.5,145C 138.094,144.536 138.761,144.369 139.5,144.5 Z"/></g>
<g><path style="opacity:1" fill="#9b350b" d="M 125.5,141.5 C 125.5,142.167 125.5,142.833 125.5,143.5C 128.22,145.917 130.22,148.917 131.5,152.5C 129.574,153.486 127.574,154.486 125.5,155.5C 123.4,149.281 121.066,143.114 118.5,137C 118.833,136.5 119.167,136 119.5,135.5C 121.188,137.854 123.188,139.854 125.5,141.5 Z"/></g>
<g><path style="opacity:0.482" fill="#9f8b88" d="M 156.5,145.5 C 155.833,146.5 155.167,147.5 154.5,148.5C 153.833,148.833 153.167,149.167 152.5,149.5C 152.833,147.167 154.167,145.833 156.5,145.5 Z"/></g>
<g><path style="opacity:0.047" fill="#bdb7ac" d="M 142.5,147.5 C 142.262,149.404 141.262,150.738 139.5,151.5C 139.738,149.596 140.738,148.262 142.5,147.5 Z"/></g>
<g><path style="opacity:1" fill="#583c2b" d="M 163.5,144.5 C 164.167,145.833 165.167,146.833 166.5,147.5C 166.5,150.167 166.5,152.833 166.5,155.5C 165.167,157.5 163.5,159.167 161.5,160.5C 159.166,162.176 158.166,164.509 158.5,167.5C 158.167,167.5 157.833,167.5 157.5,167.5C 157.34,165.801 157.506,164.134 158,162.5C 160.022,158.997 162.189,155.663 164.5,152.5C 164.714,150.856 164.38,149.356 163.5,148C 161.115,147.444 158.782,147.61 156.5,148.5C 155.833,148.5 155.167,148.5 154.5,148.5C 155.167,147.5 155.833,146.5 156.5,145.5C 158.655,143.466 160.988,143.133 163.5,144.5 Z"/></g>
<g><path style="opacity:0.337" fill="#b29f99" d="M 52.5,148.5 C 52.573,150.027 51.9063,151.027 50.5,151.5C 50.427,149.973 51.0937,148.973 52.5,148.5 Z"/></g>
<g><path style="opacity:1" fill="#d3883a" d="M 164.5,152.5 C 162.5,153.833 160.833,155.5 159.5,157.5C 156.243,157.236 154.243,155.57 153.5,152.5C 154.488,151.205 155.488,149.872 156.5,148.5C 158.782,147.61 161.115,147.444 163.5,148C 164.38,149.356 164.714,150.856 164.5,152.5 Z"/></g>
<g><path style="opacity:0.243" fill="#baa7a1" d="M 152.5,149.5 C 152.573,151.027 151.906,152.027 150.5,152.5C 150.427,150.973 151.094,149.973 152.5,149.5 Z"/></g>
<g><path style="opacity:1" fill="#dc802b" d="M 63.5,156.5 C 63.1667,157.167 62.8333,157.833 62.5,158.5C 61.0222,158.762 59.6888,158.429 58.5,157.5C 57.4793,156.099 56.4793,154.765 55.5,153.5C 55.1667,150.5 56.5,149.167 59.5,149.5C 59.5,150.5 59.5,151.5 59.5,152.5C 62.5,152.167 63.8333,153.5 63.5,156.5 Z"/></g>
<g><path style="opacity:0.588" fill="#958d89" d="M 166.5,147.5 C 169.059,150.09 169.059,152.757 166.5,155.5C 166.5,152.833 166.5,150.167 166.5,147.5 Z"/></g>
<g><path style="opacity:1" fill="#be6b33" d="M 68.5,145.5 C 71.3091,145.958 71.9758,147.291 70.5,149.5C 67.8061,151.527 65.4728,153.861 63.5,156.5C 63.8333,153.5 62.5,152.167 59.5,152.5C 59.5,151.5 59.5,150.5 59.5,149.5C 56.5,149.167 55.1667,150.5 55.5,153.5C 54.596,152.791 54.2627,151.791 54.5,150.5C 55.1667,149.167 56.1667,148.167 57.5,147.5C 58.1667,147.5 58.8333,147.5 59.5,147.5C 60.1087,149.943 61.6087,151.61 64,152.5C 64.7796,150.613 64.6129,148.946 63.5,147.5C 64.5521,145.744 66.2188,145.077 68.5,145.5 Z"/></g>
<g><path style="opacity:1" fill="#933006" d="M 59.5,147.5 C 60.8333,147.5 62.1667,147.5 63.5,147.5C 64.6129,148.946 64.7796,150.613 64,152.5C 61.6087,151.61 60.1087,149.943 59.5,147.5 Z"/></g>
<g><path style="opacity:1" fill="#7f5541" d="M 75.5,147.5 C 76.4861,151.97 76.8195,156.637 76.5,161.5C 76.1667,161.5 75.8333,161.5 75.5,161.5C 74.5184,158.038 74.185,154.371 74.5,150.5C 75.404,149.791 75.7373,148.791 75.5,147.5 Z"/></g>
<g><path style="opacity:1" fill="#5b1a06" d="M 70.5,149.5 C 70.5,150.167 70.5,150.833 70.5,151.5C 68.8333,154.167 67.1667,156.833 65.5,159.5C 64.5987,160.29 63.9321,161.29 63.5,162.5C 60.8361,164.484 59.1695,167.151 58.5,170.5C 58.5,171.167 58.5,171.833 58.5,172.5C 58.1667,172.5 57.8333,172.5 57.5,172.5C 57.7373,171.209 57.404,170.209 56.5,169.5C 56.9925,167.181 57.9925,165.181 59.5,163.5C 60.7368,162.035 61.7368,160.368 62.5,158.5C 62.8333,157.833 63.1667,157.167 63.5,156.5C 65.4728,153.861 67.8061,151.527 70.5,149.5 Z"/></g>
<g><path style="opacity:0.312" fill="#b3aaa1" d="M 50.5,151.5 C 49.8379,155.466 49.5045,159.466 49.5,163.5C 48.8418,162.207 48.5085,160.707 48.5,159C 48.4078,156.179 49.0744,153.679 50.5,151.5 Z"/></g>
<g><path style="opacity:1" fill="#d08339" d="M 64.5,122.5 C 65.3149,123.429 66.1482,124.429 67,125.5C 66.3004,131.297 68.1337,135.964 72.5,139.5C 73.5178,138.807 74.5178,138.141 75.5,137.5C 75.5,138.167 75.5,138.833 75.5,139.5C 73.8208,142.744 74.8208,144.744 78.5,145.5C 78.3343,149.846 78.501,154.179 79,158.5C 81.8003,159.125 84.6336,159.792 87.5,160.5C 89.7724,161.134 91.4391,162.468 92.5,164.5C 90.8333,163.833 89.1667,163.167 87.5,162.5C 83.8212,162.276 80.1545,161.942 76.5,161.5C 76.8195,156.637 76.4861,151.97 75.5,147.5C 72.5298,143.68 69.6964,139.68 67,135.5C 65.8466,131.213 65.0133,126.879 64.5,122.5 Z"/></g>
<g><path style="opacity:1" fill="#d1843d" d="M 70.5,164.5 C 69.209,164.263 68.209,164.596 67.5,165.5C 64.622,166.562 62.622,168.562 61.5,171.5C 60.391,171.557 59.391,171.89 58.5,172.5C 58.5,171.833 58.5,171.167 58.5,170.5C 59.3764,170.631 60.0431,170.298 60.5,169.5C 61.3195,167.026 62.3195,164.693 63.5,162.5C 63.9321,161.29 64.5987,160.29 65.5,159.5C 66.7942,158.71 67.9609,157.71 69,156.5C 69.2724,159.254 69.7724,161.921 70.5,164.5 Z"/></g>
<g><path style="opacity:0.071" fill="#988d87" d="M 133.5,156.5 C 135.36,157.939 137.027,159.605 138.5,161.5C 136.685,160.37 134.685,159.704 132.5,159.5C 132.263,158.209 132.596,157.209 133.5,156.5 Z"/></g>
<g><path style="opacity:1" fill="#853411" d="M 153.5,152.5 C 154.243,155.57 156.243,157.236 159.5,157.5C 157.455,158.923 156.455,160.923 156.5,163.5C 154.858,161.919 152.858,161.253 150.5,161.5C 151.953,158.606 152.953,155.606 153.5,152.5 Z"/></g>
<g><path style="opacity:1" fill="#a34316" d="M 54.5,150.5 C 54.2627,151.791 54.596,152.791 55.5,153.5C 56.4793,154.765 57.4793,156.099 58.5,157.5C 59.6888,158.429 61.0222,158.762 62.5,158.5C 61.7368,160.368 60.7368,162.035 59.5,163.5C 59.5,162.5 59.5,161.5 59.5,160.5C 56.8915,160.6 54.5582,159.933 52.5,158.5C 52.9628,155.67 53.6295,153.003 54.5,150.5 Z"/></g>
<g><path style="opacity:1" fill="#9d5831" d="M 70.5,151.5 C 70.8333,151.5 71.1667,151.5 71.5,151.5C 71.5,155.833 71.5,160.167 71.5,164.5C 71.1667,164.5 70.8333,164.5 70.5,164.5C 69.7724,161.921 69.2724,159.254 69,156.5C 67.9609,157.71 66.7942,158.71 65.5,159.5C 67.1667,156.833 68.8333,154.167 70.5,151.5 Z"/></g>
<g><path style="opacity:1" fill="#69260d" d="M 131.5,152.5 C 132.5,152.5 133.5,152.5 134.5,152.5C 134.5,152.833 134.5,153.167 134.5,153.5C 132.188,154.32 129.854,155.153 127.5,156C 126.663,157.011 126.33,158.178 126.5,159.5C 128.099,159.232 129.432,159.566 130.5,160.5C 128.097,160.448 125.764,160.781 123.5,161.5C 122.791,160.596 121.791,160.263 120.5,160.5C 121.635,158.787 123.302,158.12 125.5,158.5C 125.5,157.5 125.5,156.5 125.5,155.5C 127.574,154.486 129.574,153.486 131.5,152.5 Z"/></g>
<g><path style="opacity:0.522" fill="#a08f82" d="M 150.5,153.5 C 150.074,157.427 149.074,161.093 147.5,164.5C 147.517,160.466 148.517,156.799 150.5,153.5 Z"/></g>
<g><path style="opacity:1" fill="#852c0e" d="M 118.5,160.5 C 118.784,162.415 118.451,164.081 117.5,165.5C 117.672,164.508 117.338,163.842 116.5,163.5C 114.302,163.88 112.635,163.213 111.5,161.5C 113.903,161.552 116.236,161.219 118.5,160.5 Z"/></g>
<g><path style="opacity:1" fill="#c67537" d="M 52.5,158.5 C 54.5582,159.933 56.8915,160.6 59.5,160.5C 59.5,161.5 59.5,162.5 59.5,163.5C 57.9925,165.181 56.9925,167.181 56.5,169.5C 53.8514,166.496 52.5181,162.829 52.5,158.5 Z"/></g>
<g><path style="opacity:0.094" fill="#fff1d0" d="M 76.5,161.5 C 80.1545,161.942 83.8212,162.276 87.5,162.5C 87.8333,163.167 88.1667,163.833 88.5,164.5C 85.284,163.97 82.1174,163.304 79,162.5C 78.0656,163.858 77.2323,165.192 76.5,166.5C 76.5,164.833 76.5,163.167 76.5,161.5 Z"/></g>
<g><path style="opacity:0.243" fill="#b7a7a1" d="M 161.5,160.5 C 160.736,163.018 159.736,165.351 158.5,167.5C 158.166,164.509 159.166,162.176 161.5,160.5 Z"/></g>
<g><path style="opacity:0.816" fill="#e8c493" d="M 87.5,162.5 C 89.1667,163.167 90.8333,163.833 92.5,164.5C 92.427,166.027 93.0937,167.027 94.5,167.5C 94.5,167.833 94.5,168.167 94.5,168.5C 93.609,169.11 92.609,169.443 91.5,169.5C 91.6107,168.883 91.944,168.383 92.5,168C 91.2695,166.595 89.9361,165.429 88.5,164.5C 88.1667,163.833 87.8333,163.167 87.5,162.5 Z"/></g>
<g><path style="opacity:1" fill="#682f12" d="M 131.5,160.5 C 137.714,162.646 139.714,166.646 137.5,172.5C 137.662,170.473 137.495,168.473 137,166.5C 136.617,165.944 136.117,165.611 135.5,165.5C 134.167,164.5 132.833,163.5 131.5,162.5C 131.5,161.833 131.5,161.167 131.5,160.5 Z"/></g>
<g><path style="opacity:1" fill="#492213" d="M 85.5,80.5 C 86.1667,80.5 86.5,80.8333 86.5,81.5C 82.948,81.3118 80.2814,82.6452 78.5,85.5C 77.5,85.8333 76.8333,86.5 76.5,87.5C 75.2905,87.9321 74.2905,88.5987 73.5,89.5C 72.8333,90.5 72.1667,91.5 71.5,92.5C 70.1861,95.1279 68.8527,97.7946 67.5,100.5C 66.0337,101.347 65.2004,102.68 65,104.5C 64.4178,108.824 63.9178,113.157 63.5,117.5C 63.5068,119.369 63.8401,121.036 64.5,122.5C 65.0133,126.879 65.8466,131.213 67,135.5C 69.6964,139.68 72.5298,143.68 75.5,147.5C 75.7373,148.791 75.404,149.791 74.5,150.5C 73.5084,150.328 72.8417,150.662 72.5,151.5C 72.1667,151.5 71.8333,151.5 71.5,151.5C 71.1667,151.5 70.8333,151.5 70.5,151.5C 70.5,150.833 70.5,150.167 70.5,149.5C 71.9758,147.291 71.3091,145.958 68.5,145.5C 64.5446,144.105 60.8779,144.771 57.5,147.5C 56.1667,148.167 55.1667,149.167 54.5,150.5C 53.6295,153.003 52.9628,155.67 52.5,158.5C 52.5181,162.829 53.8514,166.496 56.5,169.5C 57.404,170.209 57.7373,171.209 57.5,172.5C 57.2964,174.685 56.6298,176.685 55.5,178.5C 54.8333,176.833 54.1667,175.167 53.5,173.5C 53.029,169.758 51.6956,166.425 49.5,163.5C 49.5045,159.466 49.8379,155.466 50.5,151.5C 51.9063,151.027 52.573,150.027 52.5,148.5C 55.1092,147.557 57.1092,145.89 58.5,143.5C 61.4824,143.037 64.4824,142.704 67.5,142.5C 67.7373,141.209 67.404,140.209 66.5,139.5C 65.3263,138.486 64.6596,137.153 64.5,135.5C 62.0009,127.033 61.0009,118.366 61.5,109.5C 63.0739,107.898 63.7406,105.898 63.5,103.5C 64.5664,101.299 65.233,98.9653 65.5,96.5C 66.9063,96.0269 67.573,95.0269 67.5,93.5C 68.9063,93.0269 69.573,92.0269 69.5,90.5C 72.8333,87.8333 75.8333,84.8333 78.5,81.5C 80.717,80.6314 83.0504,80.298 85.5,80.5 Z"/></g>
<g><path style="opacity:1" fill="#5c250c" d="M 68.5,145.5 C 66.2188,145.077 64.5521,145.744 63.5,147.5C 62.1667,147.5 60.8333,147.5 59.5,147.5C 58.8333,147.5 58.1667,147.5 57.5,147.5C 60.8779,144.771 64.5446,144.105 68.5,145.5 Z"/></g>
<g><path style="opacity:1" fill="#7d4c35" d="M 103.5,163.5 C 104.5,163.5 105.5,163.5 106.5,163.5C 103.788,165.605 100.788,167.272 97.5,168.5C 96.5,168.5 95.5,168.5 94.5,168.5C 94.5,168.167 94.5,167.833 94.5,167.5C 97.4971,166.172 100.497,164.839 103.5,163.5 Z"/></g>
<g><path style="opacity:1" fill="#a2542e" d="M 111.5,161.5 C 112.635,163.213 114.302,163.88 116.5,163.5C 112.5,165.833 108.5,168.167 104.5,170.5C 102.566,171.11 100.899,172.11 99.5,173.5C 98.8333,173.5 98.1667,173.5 97.5,173.5C 97.5,172.833 97.5,172.167 97.5,171.5C 101.806,169.012 106.139,166.512 110.5,164C 109.207,163.51 107.873,163.343 106.5,163.5C 105.5,163.5 104.5,163.5 103.5,163.5C 105.78,161.777 108.447,161.111 111.5,161.5 Z"/></g>
<g><path style="opacity:1" fill="#c46d37" d="M 130.5,160.5 C 130.833,160.5 131.167,160.5 131.5,160.5C 131.5,161.167 131.5,161.833 131.5,162.5C 128.238,163.769 125.571,165.769 123.5,168.5C 121.57,168.771 120.236,169.771 119.5,171.5C 119.629,169.784 119.962,168.117 120.5,166.5C 121.075,164.589 122.075,162.922 123.5,161.5C 125.764,160.781 128.097,160.448 130.5,160.5 Z"/></g>
<g><path style="opacity:1" fill="#b86d33" d="M 150.5,161.5 C 152.858,161.253 154.858,161.919 156.5,163.5C 156.59,166.152 155.924,168.485 154.5,170.5C 153.167,170.5 151.833,170.5 150.5,170.5C 150.5,168.167 150.5,165.833 150.5,163.5C 150.5,162.833 150.5,162.167 150.5,161.5 Z"/></g>
<g><path style="opacity:1" fill="#db8736" d="M 151.5,163.5 C 152.5,163.5 153.5,163.5 154.5,163.5C 154.5,165.167 154.5,166.833 154.5,168.5C 153.5,168.5 152.5,168.5 151.5,168.5C 151.5,166.833 151.5,165.167 151.5,163.5 Z"/></g>
<g><path style="opacity:1" fill="#a7612b" d="M 63.5,162.5 C 62.3195,164.693 61.3195,167.026 60.5,169.5C 60.0431,170.298 59.3764,170.631 58.5,170.5C 59.1695,167.151 60.8361,164.484 63.5,162.5 Z"/></g>
<g><path style="opacity:1" fill="#d06e2e" d="M 116.5,163.5 C 117.338,163.842 117.672,164.508 117.5,165.5C 115.777,167.78 115.111,170.447 115.5,173.5C 114.833,173.833 114.167,174.167 113.5,174.5C 110.341,176.08 107.007,177.08 103.5,177.5C 106.216,174.821 109.55,173.488 113.5,173.5C 113.5,171.833 113.5,170.167 113.5,168.5C 110.436,168.928 107.436,169.594 104.5,170.5C 108.5,168.167 112.5,165.833 116.5,163.5 Z"/></g>
<g><path style="opacity:1" fill="#9d330b" d="M 131.5,162.5 C 132.833,163.5 134.167,164.5 135.5,165.5C 132.164,167.576 128.497,168.909 124.5,169.5C 123.893,169.376 123.56,169.043 123.5,168.5C 125.571,165.769 128.238,163.769 131.5,162.5 Z"/></g>
<g><path style="opacity:0.473" fill="#9c9390" d="M 140.5,164.5 C 141.641,167.64 141.808,170.973 141,174.5C 140.617,175.056 140.117,175.389 139.5,175.5C 140.244,171.881 140.577,168.215 140.5,164.5 Z"/></g>
<g><path style="opacity:1" fill="#4f2915" d="M 154.5,148.5 C 155.167,148.5 155.833,148.5 156.5,148.5C 155.488,149.872 154.488,151.205 153.5,152.5C 152.953,155.606 151.953,158.606 150.5,161.5C 150.5,162.167 150.5,162.833 150.5,163.5C 149.515,167.634 149.182,171.968 149.5,176.5C 149.5,179.167 149.5,181.833 149.5,184.5C 149.5,187.167 149.5,189.833 149.5,192.5C 149.5,194.833 149.5,197.167 149.5,199.5C 149.702,201.95 149.369,204.283 148.5,206.5C 147.05,210.149 145.383,213.816 143.5,217.5C 143.043,218.298 142.376,218.631 141.5,218.5C 142.73,216.703 143.396,214.703 143.5,212.5C 145.862,210.081 146.862,207.081 146.5,203.5C 147.495,191.345 147.829,179.011 147.5,166.5C 147.5,165.833 147.5,165.167 147.5,164.5C 149.074,161.093 150.074,157.427 150.5,153.5C 150.5,153.167 150.5,152.833 150.5,152.5C 151.906,152.027 152.573,151.027 152.5,149.5C 153.167,149.167 153.833,148.833 154.5,148.5 Z"/></g>
<g><path style="opacity:1" fill="#dcc4bd" d="M 71.5,151.5 C 71.8333,151.5 72.1667,151.5 72.5,151.5C 73.4933,160.318 73.8266,169.318 73.5,178.5C 73.1583,179.338 72.4916,179.672 71.5,179.5C 71.5,174.5 71.5,169.5 71.5,164.5C 71.5,160.167 71.5,155.833 71.5,151.5 Z"/></g>
<g><path style="opacity:0.349" fill="#c7c2ce" d="M 75.5,161.5 C 75.8333,161.5 76.1667,161.5 76.5,161.5C 76.5,163.167 76.5,164.833 76.5,166.5C 75.931,170.329 76.5977,173.663 78.5,176.5C 77.791,177.404 76.791,177.737 75.5,177.5C 75.5,172.167 75.5,166.833 75.5,161.5 Z"/></g>
<g><path style="opacity:1" fill="#4b0c00" d="M 118.5,160.5 C 119.167,160.5 119.833,160.5 120.5,160.5C 121.791,160.263 122.791,160.596 123.5,161.5C 122.075,162.922 121.075,164.589 120.5,166.5C 119.883,166.611 119.383,166.944 119,167.5C 118.501,171.821 118.334,176.154 118.5,180.5C 118.869,182.993 118.203,183.66 116.5,182.5C 116.672,181.508 116.338,180.842 115.5,180.5C 115.5,178.167 115.5,175.833 115.5,173.5C 116.768,171.095 117.435,168.428 117.5,165.5C 118.451,164.081 118.784,162.415 118.5,160.5 Z"/></g>
<g><path style="opacity:0.192" fill="#beb2a7" d="M 49.5,163.5 C 51.6956,166.425 53.029,169.758 53.5,173.5C 53.6641,176.187 53.4974,178.854 53,181.5C 52.7216,182.416 52.2216,183.082 51.5,183.5C 51.5072,180.962 51.8405,178.462 52.5,176C 51.5738,171.796 50.5738,167.629 49.5,163.5 Z"/></g>
<g><path style="opacity:1" fill="#823a14" d="M 117.5,165.5 C 117.435,168.428 116.768,171.095 115.5,173.5C 115.111,170.447 115.777,167.78 117.5,165.5 Z"/></g>
<g><path style="opacity:0.89" fill="#928f9a" d="M 72.5,151.5 C 72.8417,150.662 73.5084,150.328 74.5,150.5C 74.185,154.371 74.5184,158.038 75.5,161.5C 75.5,166.833 75.5,172.167 75.5,177.5C 76.791,177.737 77.791,177.404 78.5,176.5C 82.5765,173.773 86.9098,171.439 91.5,169.5C 92.609,169.443 93.609,169.11 94.5,168.5C 95.5,168.5 96.5,168.5 97.5,168.5C 90.909,172.155 84.2423,175.822 77.5,179.5C 75.8049,180.826 74.4716,180.493 73.5,178.5C 73.8266,169.318 73.4933,160.318 72.5,151.5 Z"/></g>
<g><path style="opacity:1" fill="#d9762b" d="M 135.5,165.5 C 136.117,165.611 136.617,165.944 137,166.5C 137.495,168.473 137.662,170.473 137.5,172.5C 135.326,172.75 133.659,173.75 132.5,175.5C 128.656,176.089 125.322,177.756 122.5,180.5C 124.396,181.466 126.396,181.799 128.5,181.5C 128.288,185.738 126.288,187.405 122.5,186.5C 122.036,184.025 121.036,182.025 119.5,180.5C 119.5,177.5 119.5,174.5 119.5,171.5C 120.236,169.771 121.57,168.771 123.5,168.5C 123.56,169.043 123.893,169.376 124.5,169.5C 128.497,168.909 132.164,167.576 135.5,165.5 Z"/></g>
<g><path style="opacity:1" fill="#763317" d="M 150.5,163.5 C 150.5,165.833 150.5,168.167 150.5,170.5C 151.833,170.5 153.167,170.5 154.5,170.5C 154.5,172.5 154.5,174.5 154.5,176.5C 152.833,176.5 151.167,176.5 149.5,176.5C 149.182,171.968 149.515,167.634 150.5,163.5 Z"/></g>
<g><path style="opacity:1" fill="#361a11" d="M 134.5,153.5 C 134.443,154.609 134.11,155.609 133.5,156.5C 132.596,157.209 132.263,158.209 132.5,159.5C 134.685,159.704 136.685,160.37 138.5,161.5C 139.401,162.29 140.068,163.29 140.5,164.5C 140.577,168.215 140.244,171.881 139.5,175.5C 138.833,175.833 138.167,176.167 137.5,176.5C 137.5,175.5 137.5,174.5 137.5,173.5C 137.5,173.167 137.5,172.833 137.5,172.5C 139.714,166.646 137.714,162.646 131.5,160.5C 131.167,160.5 130.833,160.5 130.5,160.5C 129.432,159.566 128.099,159.232 126.5,159.5C 126.33,158.178 126.663,157.011 127.5,156C 129.854,155.153 132.188,154.32 134.5,153.5 Z"/></g>
<g><path style="opacity:1" fill="#c49b6e" d="M 61.5,171.5 C 59.7349,174.709 57.7349,177.709 55.5,180.5C 55.5,179.833 55.5,179.167 55.5,178.5C 56.6298,176.685 57.2964,174.685 57.5,172.5C 57.8333,172.5 58.1667,172.5 58.5,172.5C 59.391,171.89 60.391,171.557 61.5,171.5 Z"/></g>
<g><path style="opacity:0.659" fill="#b49b89" d="M 67.5,165.5 C 68.209,164.596 69.209,164.263 70.5,164.5C 70.8333,164.5 71.1667,164.5 71.5,164.5C 71.5,169.5 71.5,174.5 71.5,179.5C 70.8333,179.5 70.1667,179.5 69.5,179.5C 69.5,177.833 69.5,176.167 69.5,174.5C 69.5,173.833 69.5,173.167 69.5,172.5C 70.0102,169.612 69.3435,167.279 67.5,165.5 Z"/></g>
<g><path style="opacity:1" fill="#e3caca" d="M 106.5,163.5 C 107.873,163.343 109.207,163.51 110.5,164C 106.139,166.512 101.806,169.012 97.5,171.5C 92.5044,173.662 87.8377,176.329 83.5,179.5C 82.1667,179.833 80.8333,180.167 79.5,180.5C 78.5084,180.672 77.8417,180.338 77.5,179.5C 84.2423,175.822 90.909,172.155 97.5,168.5C 100.788,167.272 103.788,165.605 106.5,163.5 Z"/></g>
<g><path style="opacity:1" fill="#988076" d="M 97.5,171.5 C 97.5,172.167 97.5,172.833 97.5,173.5C 96.8333,173.5 96.5,173.833 96.5,174.5C 95.5084,174.328 94.8417,174.662 94.5,175.5C 91.6689,176.079 89.3356,177.412 87.5,179.5C 86.5,179.5 85.5,179.5 84.5,179.5C 84.1667,179.5 83.8333,179.5 83.5,179.5C 87.8377,176.329 92.5044,173.662 97.5,171.5 Z"/></g>
<g><path style="opacity:1" fill="#d18d4f" d="M 96.5,174.5 C 96.5,173.833 96.8333,173.5 97.5,173.5C 98.1667,173.5 98.8333,173.5 99.5,173.5C 101.536,175.206 102.536,177.539 102.5,180.5C 102.5,181.167 102.5,181.833 102.5,182.5C 101.833,181.5 101.167,180.5 100.5,179.5C 100.817,176.454 99.4841,174.787 96.5,174.5 Z"/></g>
<g><path style="opacity:1" fill="#de7928" d="M 103.5,177.5 C 103.62,178.586 104.287,179.253 105.5,179.5C 108.782,180.488 112.115,181.154 115.5,181.5C 115.263,182.791 115.596,183.791 116.5,184.5C 116.5,186.167 116.5,187.833 116.5,189.5C 112.998,190.917 109.331,191.584 105.5,191.5C 106.159,189.862 106.826,188.195 107.5,186.5C 105.483,184.716 103.816,182.716 102.5,180.5C 102.536,177.539 101.536,175.206 99.5,173.5C 100.899,172.11 102.566,171.11 104.5,170.5C 107.436,169.594 110.436,168.928 113.5,168.5C 113.5,170.167 113.5,171.833 113.5,173.5C 109.55,173.488 106.216,174.821 103.5,177.5 Z"/></g>
<g><path style="opacity:1" fill="#914a26" d="M 120.5,166.5 C 119.962,168.117 119.629,169.784 119.5,171.5C 119.5,174.5 119.5,177.5 119.5,180.5C 119.167,180.5 118.833,180.5 118.5,180.5C 118.334,176.154 118.501,171.821 119,167.5C 119.383,166.944 119.883,166.611 120.5,166.5 Z"/></g>
<g><path style="opacity:0.238" fill="#f5f5f6" d="M 185.5,142.5 C 203.849,160.658 207.516,181.324 196.5,204.5C 196.815,202.774 196.981,201.107 197,199.5C 195.156,202.528 193.322,205.528 191.5,208.5C 191.167,208.5 190.833,208.5 190.5,208.5C 204.371,186.75 202.371,166.417 184.5,147.5C 186.784,146.323 187.118,144.656 185.5,142.5 Z"/></g>
<g><path style="opacity:0.059" fill="#b3a49f" d="M 139.5,175.5 C 139.573,177.027 138.906,178.027 137.5,178.5C 137.5,177.833 137.5,177.167 137.5,176.5C 138.167,176.167 138.833,175.833 139.5,175.5 Z"/></g>
<g><path style="opacity:1" fill="#a13a0e" d="M 113.5,174.5 C 112.659,176.379 112.325,178.379 112.5,180.5C 113.5,180.5 114.5,180.5 115.5,180.5C 116.338,180.842 116.672,181.508 116.5,182.5C 116.5,183.167 116.5,183.833 116.5,184.5C 115.596,183.791 115.263,182.791 115.5,181.5C 112.115,181.154 108.782,180.488 105.5,179.5C 104.287,179.253 103.62,178.586 103.5,177.5C 107.007,177.08 110.341,176.08 113.5,174.5 Z"/></g>
<g><path style="opacity:1" fill="#772608" d="M 115.5,173.5 C 115.5,175.833 115.5,178.167 115.5,180.5C 114.5,180.5 113.5,180.5 112.5,180.5C 112.325,178.379 112.659,176.379 113.5,174.5C 114.167,174.167 114.833,173.833 115.5,173.5 Z"/></g>
<g><path style="opacity:1" fill="#f8ebd4" d="M 67.5,165.5 C 69.3435,167.279 70.0102,169.612 69.5,172.5C 67.5834,166.051 65.5834,166.385 63.5,173.5C 64.8001,177.146 66.8001,177.48 69.5,174.5C 69.5,176.167 69.5,177.833 69.5,179.5C 69.0623,180.506 68.3957,180.506 67.5,179.5C 60.5223,177.804 57.5223,180.804 58.5,188.5C 57.8386,187.282 57.1719,185.949 56.5,184.5C 55.8302,186.291 55.1635,187.958 54.5,189.5C 54.5,188.167 54.5,186.833 54.5,185.5C 54.366,183.708 54.6993,182.042 55.5,180.5C 57.7349,177.709 59.7349,174.709 61.5,171.5C 62.622,168.562 64.622,166.562 67.5,165.5 Z"/></g>
<g><path style="opacity:1" fill="#803119" d="M 137.5,172.5 C 137.5,172.833 137.5,173.167 137.5,173.5C 134.128,176.914 131.794,180.914 130.5,185.5C 130.768,183.901 130.434,182.568 129.5,181.5C 131.25,179.941 132.25,177.941 132.5,175.5C 133.659,173.75 135.326,172.75 137.5,172.5 Z"/></g>
<g><path style="opacity:1" fill="#4e3b2c" d="M 53.5,173.5 C 54.1667,175.167 54.8333,176.833 55.5,178.5C 55.5,179.167 55.5,179.833 55.5,180.5C 54.6993,182.042 54.366,183.708 54.5,185.5C 53.0082,190.4 52.0082,195.4 51.5,200.5C 51.5,194.833 51.5,189.167 51.5,183.5C 52.2216,183.082 52.7216,182.416 53,181.5C 53.4974,178.854 53.6641,176.187 53.5,173.5 Z"/></g>
<g><path style="opacity:1" fill="#956541" d="M 83.5,179.5 C 83.8333,179.5 84.1667,179.5 84.5,179.5C 84.5,180.167 84.5,180.833 84.5,181.5C 82.901,181.232 81.5676,181.566 80.5,182.5C 77.094,183.69 76.7607,183.023 79.5,180.5C 80.8333,180.167 82.1667,179.833 83.5,179.5 Z"/></g>
<g><path style="opacity:1" fill="#a43b0b" d="M 132.5,175.5 C 132.25,177.941 131.25,179.941 129.5,181.5C 129.167,181.5 128.833,181.5 128.5,181.5C 126.396,181.799 124.396,181.466 122.5,180.5C 125.322,177.756 128.656,176.089 132.5,175.5 Z"/></g>
<g><path style="opacity:0.173" fill="#b7ab9e" d="M 137.5,178.5 C 137.573,180.027 136.906,181.027 135.5,181.5C 135.427,179.973 136.094,178.973 137.5,178.5 Z"/></g>
<g><path style="opacity:1" fill="#c7a87a" d="M 67.5,179.5 C 66.1266,179.343 64.7932,179.51 63.5,180C 62.2264,180.977 62.2264,181.811 63.5,182.5C 61.2699,184.535 60.9365,186.868 62.5,189.5C 61.1667,189.5 60.5,190.167 60.5,191.5C 59.5987,190.71 58.9321,189.71 58.5,188.5C 57.5223,180.804 60.5223,177.804 67.5,179.5 Z"/></g>
<g><path style="opacity:0.353" fill="#a9978c" d="M 135.5,181.5 C 135.34,183.153 134.674,184.486 133.5,185.5C 133.229,183.62 133.896,182.287 135.5,181.5 Z"/></g>
<g><path style="opacity:1" fill="#d68533" d="M 102.5,180.5 C 103.816,182.716 105.483,184.716 107.5,186.5C 106.826,188.195 106.159,189.862 105.5,191.5C 105.5,192.5 105.5,193.5 105.5,194.5C 105.876,199.273 104.876,203.607 102.5,207.5C 102.5,205.5 102.5,203.5 102.5,201.5C 103.807,195.266 103.807,188.932 102.5,182.5C 102.5,181.833 102.5,181.167 102.5,180.5 Z"/></g>
<g><path style="opacity:1" fill="#a85f2f" d="M 149.5,176.5 C 151.167,176.5 152.833,176.5 154.5,176.5C 154.5,179.5 154.5,182.5 154.5,185.5C 152.901,185.768 151.568,185.434 150.5,184.5C 150.167,184.5 149.833,184.5 149.5,184.5C 149.5,181.833 149.5,179.167 149.5,176.5 Z"/></g>
<g><path style="opacity:1" fill="#d58342" d="M 150.5,184.5 C 150.5,182.167 150.5,179.833 150.5,177.5C 151.5,177.5 152.5,177.5 153.5,177.5C 153.5,179.833 153.5,182.167 153.5,184.5C 152.5,184.5 151.5,184.5 150.5,184.5 Z"/></g>
<g><path style="opacity:1" fill="#fbf4d7" d="M 63.5,182.5 C 65.7224,182.559 66.7224,183.725 66.5,186C 66.5765,188.756 65.2431,189.923 62.5,189.5C 60.9365,186.868 61.2699,184.535 63.5,182.5 Z"/></g>
<g><path style="opacity:1" fill="#fcfcf8" d="M 94.5,175.5 C 99.1871,178.93 100.187,183.263 97.5,188.5C 99.3347,195.015 100.001,201.682 99.5,208.5C 96.8324,213.18 94.6658,218.18 93,223.5C 90.2462,226.956 86.7462,228.956 82.5,229.5C 76.1617,230.896 71.1617,229.063 67.5,224C 66.2068,223.51 64.8734,223.343 63.5,223.5C 62.8333,223.167 62.1667,222.833 61.5,222.5C 60.4043,219.968 59.0709,217.635 57.5,215.5C 57.5979,213.447 56.9313,211.78 55.5,210.5C 54.4344,205.733 53.7678,200.9 53.5,196C 53.5039,193.639 53.8373,191.473 54.5,189.5C 55.1635,187.958 55.8302,186.291 56.5,184.5C 57.1719,185.949 57.8386,187.282 58.5,188.5C 58.9321,189.71 59.5987,190.71 60.5,191.5C 61.1098,192.391 61.4431,193.391 61.5,194.5C 60.386,202.055 63.386,205.055 70.5,203.5C 71.6131,205.031 73.1131,206.031 75,206.5C 76.0698,206.472 76.9032,206.139 77.5,205.5C 79.5,205.5 81.5,205.5 83.5,205.5C 83.3367,203.143 83.5034,200.81 84,198.5C 86.5153,196.893 87.8487,194.56 88,191.5C 88.7625,187.413 88.5958,183.413 87.5,179.5C 89.3356,177.412 91.6689,176.079 94.5,175.5 Z"/></g>
<g><path style="opacity:0.912" fill="#fbf0d3" d="M 80.5,191.5 C 79.8333,191.5 79.5,191.167 79.5,190.5C 79.3642,187.476 80.6975,185.976 83.5,186C 84.9971,189.172 83.9971,191.005 80.5,191.5 Z"/></g>
<g><path style="opacity:1" fill="#cb7131" d="M 119.5,180.5 C 121.036,182.025 122.036,184.025 122.5,186.5C 126.288,187.405 128.288,185.738 128.5,181.5C 128.833,181.5 129.167,181.5 129.5,181.5C 130.434,182.568 130.768,183.901 130.5,185.5C 128.992,187.985 127.659,190.652 126.5,193.5C 124.478,191.391 122.478,189.391 120.5,187.5C 119.781,185.236 119.448,182.903 119.5,180.5 Z"/></g>
<g><path style="opacity:0.29" fill="#b19f96" d="M 133.5,185.5 C 132.596,189.375 131.596,193.208 130.5,197C 131.252,197.671 131.586,198.504 131.5,199.5C 130.351,199.209 129.684,198.376 129.5,197C 130.007,192.766 131.34,188.933 133.5,185.5 Z"/></g>
<g><path style="opacity:1" fill="#723213" d="M 149.5,184.5 C 149.833,184.5 150.167,184.5 150.5,184.5C 151.568,185.434 152.901,185.768 154.5,185.5C 154.5,187.833 154.5,190.167 154.5,192.5C 152.833,192.5 151.167,192.5 149.5,192.5C 149.5,189.833 149.5,187.167 149.5,184.5 Z"/></g>
<g><path style="opacity:1" fill="#fef8e5" d="M 96.5,174.5 C 99.4841,174.787 100.817,176.454 100.5,179.5C 102.182,186.712 102.848,194.045 102.5,201.5C 101.131,203.691 100.131,206.025 99.5,208.5C 100.001,201.682 99.3347,195.015 97.5,188.5C 100.187,183.263 99.1871,178.93 94.5,175.5C 94.8417,174.662 95.5084,174.328 96.5,174.5 Z"/></g>
<g><path style="opacity:1" fill="#e1b77f" d="M 100.5,179.5 C 101.167,180.5 101.833,181.5 102.5,182.5C 103.807,188.932 103.807,195.266 102.5,201.5C 102.848,194.045 102.182,186.712 100.5,179.5 Z"/></g>
<g><path style="opacity:1" fill="#4b1b0e" d="M 137.5,173.5 C 137.5,174.5 137.5,175.5 137.5,176.5C 137.5,177.167 137.5,177.833 137.5,178.5C 136.094,178.973 135.427,179.973 135.5,181.5C 133.896,182.287 133.229,183.62 133.5,185.5C 131.34,188.933 130.007,192.766 129.5,197C 129.684,198.376 130.351,199.209 131.5,199.5C 132.338,199.842 132.672,200.508 132.5,201.5C 131.853,202.274 131.52,203.274 131.5,204.5C 131.968,207.233 132.635,209.9 133.5,212.5C 132.542,212.047 131.708,211.381 131,210.5C 130.817,207.635 130.317,204.969 129.5,202.5C 128.5,199.5 126.5,197.5 123.5,196.5C 122.343,194.862 121.176,193.196 120,191.5C 119.235,189.934 119.402,188.601 120.5,187.5C 122.478,189.391 124.478,191.391 126.5,193.5C 127.659,190.652 128.992,187.985 130.5,185.5C 131.794,180.914 134.128,176.914 137.5,173.5 Z"/></g>
<g><path style="opacity:1" fill="#cca65b" d="M 73.5,178.5 C 74.4716,180.493 75.8049,180.826 77.5,179.5C 77.8417,180.338 78.5084,180.672 79.5,180.5C 76.7607,183.023 77.094,183.69 80.5,182.5C 81.7562,182.461 82.7562,182.961 83.5,184C 81.5643,184.813 79.5643,185.313 77.5,185.5C 77.1201,187.698 77.7868,189.365 79.5,190.5C 79.5,191.167 79.8333,191.5 80.5,191.5C 81.2625,192.268 82.2625,192.768 83.5,193C 84.2524,193.671 84.5858,194.504 84.5,195.5C 83.2905,195.932 82.2905,196.599 81.5,197.5C 80.609,196.89 79.609,196.557 78.5,196.5C 76.2439,193.695 74.5772,194.028 73.5,197.5C 72.5041,197.414 71.6708,197.748 71,198.5C 70.7679,197.263 70.2679,196.263 69.5,195.5C 68.7893,193.158 67.456,192.825 65.5,194.5C 64.1667,195.833 62.8333,195.833 61.5,194.5C 61.4431,193.391 61.1098,192.391 60.5,191.5C 60.5,190.167 61.1667,189.5 62.5,189.5C 65.2431,189.923 66.5765,188.756 66.5,186C 66.7224,183.725 65.7224,182.559 63.5,182.5C 62.2264,181.811 62.2264,180.977 63.5,180C 64.7932,179.51 66.1266,179.343 67.5,179.5C 68.3957,180.506 69.0623,180.506 69.5,179.5C 70.1667,179.5 70.8333,179.5 71.5,179.5C 72.4916,179.672 73.1583,179.338 73.5,178.5 Z"/></g>
<g><path style="opacity:1" fill="#fdf0d1" d="M 71.5,184.5 C 75.35,184.701 76.35,186.534 74.5,190C 70.5369,190.118 69.5369,188.284 71.5,184.5 Z"/></g>
<g><path style="opacity:1" fill="#a43a10" d="M 116.5,184.5 C 118.401,186.732 118.735,189.232 117.5,192C 119.018,193.351 120.351,194.851 121.5,196.5C 121.167,196.5 120.833,196.5 120.5,196.5C 115.567,195.639 110.567,194.972 105.5,194.5C 105.5,193.5 105.5,192.5 105.5,191.5C 109.331,191.584 112.998,190.917 116.5,189.5C 116.5,187.833 116.5,186.167 116.5,184.5 Z"/></g>
<g><path style="opacity:0.526" fill="#bcb4ae" d="M 51.5,183.5 C 51.5,189.167 51.5,194.833 51.5,200.5C 51.5,202.5 51.5,204.5 51.5,206.5C 48.9153,198.839 48.9153,191.172 51.5,183.5 Z"/></g>
<g><path style="opacity:1" fill="#cdb17d" d="M 80.5,182.5 C 81.5676,181.566 82.901,181.232 84.5,181.5C 86.876,182.512 87.876,184.345 87.5,187C 87.2382,189.547 86.7382,192.047 86,194.5C 85.6174,195.056 85.1174,195.389 84.5,195.5C 84.5858,194.504 84.2524,193.671 83.5,193C 82.2625,192.768 81.2625,192.268 80.5,191.5C 83.9971,191.005 84.9971,189.172 83.5,186C 80.6975,185.976 79.3642,187.476 79.5,190.5C 77.7868,189.365 77.1201,187.698 77.5,185.5C 79.5643,185.313 81.5643,184.813 83.5,184C 82.7562,182.961 81.7562,182.461 80.5,182.5 Z"/></g>
<g><path style="opacity:1" fill="#681f0e" d="M 118.5,180.5 C 118.833,180.5 119.167,180.5 119.5,180.5C 119.448,182.903 119.781,185.236 120.5,187.5C 119.402,188.601 119.235,189.934 120,191.5C 121.176,193.196 122.343,194.862 123.5,196.5C 122.833,196.5 122.167,196.5 121.5,196.5C 120.351,194.851 119.018,193.351 117.5,192C 118.735,189.232 118.401,186.732 116.5,184.5C 116.5,183.833 116.5,183.167 116.5,182.5C 118.203,183.66 118.869,182.993 118.5,180.5 Z"/></g>
<g><path style="opacity:0.259" fill="#b6a89e" d="M 157.5,167.5 C 157.833,167.5 158.167,167.5 158.5,167.5C 158.091,181.692 157.091,195.692 155.5,209.5C 155.962,195.48 156.629,181.48 157.5,167.5 Z"/></g>
<g><path style="opacity:1" fill="#bd793f" d="M 149.5,192.5 C 151.167,192.5 152.833,192.5 154.5,192.5C 154.702,194.95 154.369,197.283 153.5,199.5C 152.167,199.5 150.833,199.5 149.5,199.5C 149.5,197.167 149.5,194.833 149.5,192.5 Z"/></g>
<g><path style="opacity:1" fill="#fcf0d3" d="M 69.5,195.5 C 70.2436,198.95 68.9103,200.616 65.5,200.5C 65.5,198.5 65.5,196.5 65.5,194.5C 67.456,192.825 68.7893,193.158 69.5,195.5 Z"/></g>
<g><path style="opacity:1" fill="#f8efd3" d="M 84.5,179.5 C 85.5,179.5 86.5,179.5 87.5,179.5C 88.5958,183.413 88.7625,187.413 88,191.5C 87.8487,194.56 86.5153,196.893 84,198.5C 83.5034,200.81 83.3367,203.143 83.5,205.5C 81.5,205.5 79.5,205.5 77.5,205.5C 79.873,203.421 81.2064,200.754 81.5,197.5C 82.2905,196.599 83.2905,195.932 84.5,195.5C 85.1174,195.389 85.6174,195.056 86,194.5C 86.7382,192.047 87.2382,189.547 87.5,187C 87.876,184.345 86.876,182.512 84.5,181.5C 84.5,180.833 84.5,180.167 84.5,179.5 Z"/></g>
<g><path style="opacity:1" fill="#605653" d="M 54.5,185.5 C 54.5,186.833 54.5,188.167 54.5,189.5C 53.8373,191.473 53.5039,193.639 53.5,196C 53.7678,200.9 54.4344,205.733 55.5,210.5C 55.8693,212.993 55.2027,213.66 53.5,212.5C 53.1249,210.302 52.4582,208.302 51.5,206.5C 51.5,204.5 51.5,202.5 51.5,200.5C 52.0082,195.4 53.0082,190.4 54.5,185.5 Z"/></g>
<g><path style="opacity:1" fill="#fbeed9" d="M 78.5,196.5 C 79.1693,200.676 77.6693,202.009 74,200.5C 73.5172,199.552 73.3505,198.552 73.5,197.5C 74.5772,194.028 76.2439,193.695 78.5,196.5 Z"/></g>
<g><path style="opacity:1" fill="#b9682e" d="M 120.5,196.5 C 120.833,196.5 121.167,196.5 121.5,196.5C 122.167,196.5 122.833,196.5 123.5,196.5C 126.5,197.5 128.5,199.5 129.5,202.5C 129.715,204.179 129.048,205.179 127.5,205.5C 127.657,204.127 127.49,202.793 127,201.5C 124.313,200.418 122.146,198.751 120.5,196.5 Z"/></g>
<g><path style="opacity:0.696" fill="#a39188" d="M 147.5,166.5 C 147.829,179.011 147.495,191.345 146.5,203.5C 146.167,203.5 145.833,203.5 145.5,203.5C 146.013,191.006 146.68,178.673 147.5,166.5 Z"/></g>
<g><path style="opacity:1" fill="#c7aa6d" d="M 61.5,194.5 C 62.8333,195.833 64.1667,195.833 65.5,194.5C 65.5,196.5 65.5,198.5 65.5,200.5C 68.9103,200.616 70.2436,198.95 69.5,195.5C 70.2679,196.263 70.7679,197.263 71,198.5C 71.6708,197.748 72.5041,197.414 73.5,197.5C 73.3505,198.552 73.5172,199.552 74,200.5C 77.6693,202.009 79.1693,200.676 78.5,196.5C 79.609,196.557 80.609,196.89 81.5,197.5C 81.2064,200.754 79.873,203.421 77.5,205.5C 76.9032,206.139 76.0698,206.472 75,206.5C 73.1131,206.031 71.6131,205.031 70.5,203.5C 63.386,205.055 60.386,202.055 61.5,194.5 Z"/></g>
<g><path style="opacity:0.91" fill="#91827e" d="M 132.5,201.5 C 135.604,206.999 137.938,212.665 139.5,218.5C 139.5,218.833 139.5,219.167 139.5,219.5C 138.833,219.5 138.5,219.833 138.5,220.5C 137.414,220.38 136.747,219.713 136.5,218.5C 135.901,212.61 134.568,206.943 132.5,201.5 Z"/></g>
<g><path style="opacity:1" fill="#753313" d="M 149.5,199.5 C 150.833,199.5 152.167,199.5 153.5,199.5C 153.817,203.702 153.483,207.702 152.5,211.5C 152.5,209.833 152.5,208.167 152.5,206.5C 151.167,206.5 149.833,206.5 148.5,206.5C 149.369,204.283 149.702,201.95 149.5,199.5 Z"/></g>
<g><path style="opacity:0.545" fill="#918077" d="M 145.5,203.5 C 145.833,203.5 146.167,203.5 146.5,203.5C 146.862,207.081 145.862,210.081 143.5,212.5C 144.578,209.598 145.244,206.598 145.5,203.5 Z"/></g>
<g><path style="opacity:1" fill="#542f1b" d="M 164.5,152.5 C 162.189,155.663 160.022,158.997 158,162.5C 157.506,164.134 157.34,165.801 157.5,167.5C 156.629,181.48 155.962,195.48 155.5,209.5C 155.768,211.099 155.434,212.432 154.5,213.5C 153.069,214.78 152.402,216.447 152.5,218.5C 151.094,218.973 150.427,219.973 150.5,221.5C 149.094,221.973 148.427,222.973 148.5,224.5C 147.738,226.262 146.404,227.262 144.5,227.5C 141.603,228.129 138.936,229.129 136.5,230.5C 135.833,230.5 135.167,230.5 134.5,230.5C 134.768,227.382 135.768,224.716 137.5,222.5C 137.5,222.833 137.5,223.167 137.5,223.5C 136.566,224.568 136.232,225.901 136.5,227.5C 140.26,228.226 142.927,226.893 144.5,223.5C 144.833,223.5 145.167,223.5 145.5,223.5C 147.277,220.77 148.611,217.77 149.5,214.5C 150.9,213.9 151.9,212.9 152.5,211.5C 153.483,207.702 153.817,203.702 153.5,199.5C 154.369,197.283 154.702,194.95 154.5,192.5C 154.5,190.167 154.5,187.833 154.5,185.5C 154.5,182.5 154.5,179.5 154.5,176.5C 154.5,174.5 154.5,172.5 154.5,170.5C 155.924,168.485 156.59,166.152 156.5,163.5C 156.455,160.923 157.455,158.923 159.5,157.5C 160.833,155.5 162.5,153.833 164.5,152.5 Z"/></g>
<g><path style="opacity:1" fill="#96310b" d="M 129.5,202.5 C 130.317,204.969 130.817,207.635 131,210.5C 131.708,211.381 132.542,212.047 133.5,212.5C 133.5,212.833 133.5,213.167 133.5,213.5C 131.5,213.5 129.5,213.5 127.5,213.5C 120.832,212.549 114.166,211.049 107.5,209C 114.022,207.018 120.689,205.851 127.5,205.5C 129.048,205.179 129.715,204.179 129.5,202.5 Z"/></g>
<g><path style="opacity:0.059" fill="#d6ccca" d="M 51.5,206.5 C 52.4582,208.302 53.1249,210.302 53.5,212.5C 53.5,212.833 53.5,213.167 53.5,213.5C 51.8372,211.562 51.1706,209.228 51.5,206.5 Z"/></g>
<g><path style="opacity:1" fill="#3c1912" d="M 132.5,201.5 C 134.568,206.943 135.901,212.61 136.5,218.5C 136.747,219.713 137.414,220.38 138.5,220.5C 139.167,220.5 139.5,220.833 139.5,221.5C 138.833,221.833 138.167,222.167 137.5,222.5C 135.768,224.716 134.768,227.382 134.5,230.5C 133.766,231.708 133.433,233.041 133.5,234.5C 133.672,235.492 133.338,236.158 132.5,236.5C 131.662,236.842 131.328,237.508 131.5,238.5C 127.564,242.938 123.398,247.271 119,251.5C 118.51,252.793 118.343,254.127 118.5,255.5C 120.833,255.5 123.167,255.5 125.5,255.5C 126.492,255.328 127.158,255.662 127.5,256.5C 127.5,257.167 127.5,257.833 127.5,258.5C 125.389,257.258 123.389,257.258 121.5,258.5C 120.209,258.737 119.209,258.404 118.5,257.5C 118.389,256.883 118.056,256.383 117.5,256C 114.008,256.07 111.008,255.237 108.5,253.5C 111.147,252.927 113.813,252.26 116.5,251.5C 116.863,250.817 117.196,250.15 117.5,249.5C 119.909,248.299 121.909,246.633 123.5,244.5C 125.841,240.502 128.674,236.836 132,233.5C 132.094,227.798 132.928,222.298 134.5,217C 134.486,215.615 134.152,214.449 133.5,213.5C 133.5,213.167 133.5,212.833 133.5,212.5C 132.635,209.9 131.968,207.233 131.5,204.5C 131.52,203.274 131.853,202.274 132.5,201.5 Z"/></g>
<g><path style="opacity:1" fill="#c77e42" d="M 148.5,206.5 C 149.833,206.5 151.167,206.5 152.5,206.5C 152.5,208.167 152.5,209.833 152.5,211.5C 151.9,212.9 150.9,213.9 149.5,214.5C 148.414,214.38 147.747,213.713 147.5,212.5C 148.156,210.547 148.489,208.547 148.5,206.5 Z"/></g>
<g><path style="opacity:1" fill="#f8e1b9" d="M 102.5,201.5 C 102.5,203.5 102.5,205.5 102.5,207.5C 100.149,213.208 97.4819,218.875 94.5,224.5C 91.883,227.147 88.883,229.314 85.5,231C 81.3112,231.812 77.3112,231.645 73.5,230.5C 76.7131,230.81 79.7131,230.477 82.5,229.5C 86.7462,228.956 90.2462,226.956 93,223.5C 94.6658,218.18 96.8324,213.18 99.5,208.5C 100.131,206.025 101.131,203.691 102.5,201.5 Z"/></g>
<g><path style="opacity:1" fill="#dd7826" d="M 105.5,194.5 C 110.567,194.972 115.567,195.639 120.5,196.5C 122.146,198.751 124.313,200.418 127,201.5C 127.49,202.793 127.657,204.127 127.5,205.5C 120.689,205.851 114.022,207.018 107.5,209C 114.166,211.049 120.832,212.549 127.5,213.5C 128.209,214.404 129.209,214.737 130.5,214.5C 130.5,216.167 130.5,217.833 130.5,219.5C 127.941,219.198 125.607,219.532 123.5,220.5C 115.185,221.415 106.852,222.582 98.5,224C 99.4158,224.278 100.082,224.778 100.5,225.5C 98.7839,225.371 97.1172,225.038 95.5,224.5C 98.1206,221.187 100.287,217.52 102,213.5C 102.495,211.527 102.662,209.527 102.5,207.5C 104.876,203.607 105.876,199.273 105.5,194.5 Z"/></g>
<g><path style="opacity:1" fill="#857c74" d="M 55.5,210.5 C 56.9313,211.78 57.5979,213.447 57.5,215.5C 56.8826,215.389 56.3826,215.056 56,214.5C 55.51,215.793 55.3433,217.127 55.5,218.5C 54.0687,217.22 53.4021,215.553 53.5,213.5C 53.5,213.167 53.5,212.833 53.5,212.5C 55.2027,213.66 55.8693,212.993 55.5,210.5 Z"/></g>
<g><path style="opacity:1" fill="#d19040" d="M 102.5,207.5 C 102.662,209.527 102.495,211.527 102,213.5C 100.287,217.52 98.1206,221.187 95.5,224.5C 95.1667,224.5 94.8333,224.5 94.5,224.5C 97.4819,218.875 100.149,213.208 102.5,207.5 Z"/></g>
<g><path style="opacity:1" fill="#f4f4f6" d="M -0.5,187.5 C 7.91109,196.083 16.2444,204.916 24.5,214C 36.0253,222.426 48.3586,229.26 61.5,234.5C 59.1432,234.663 56.8098,234.497 54.5,234C 50.6305,230.712 46.2971,229.212 41.5,229.5C 41.8627,230.183 42.1961,230.85 42.5,231.5C 36.3956,228.614 30.3956,225.447 24.5,222C 15.5949,214.588 7.26155,206.755 -0.5,198.5C -0.5,194.833 -0.5,191.167 -0.5,187.5 Z"/></g>
<g><path style="opacity:0.169" fill="#c0b0ad" d="M 154.5,213.5 C 154.598,215.553 153.931,217.22 152.5,218.5C 152.402,216.447 153.069,214.78 154.5,213.5 Z"/></g>
<g><path style="opacity:1" fill="#a4b2c4" d="M 196.5,204.5 C 193.275,212.621 187.942,218.955 180.5,223.5C 181.458,222.038 182.624,220.705 184,219.5C 184.692,218.563 184.525,217.897 183.5,217.5C 186.167,214.5 188.833,211.5 191.5,208.5C 193.322,205.528 195.156,202.528 197,199.5C 196.981,201.107 196.815,202.774 196.5,204.5 Z"/></g>
<g><path style="opacity:1" fill="#cd6e2f" d="M 127.5,213.5 C 129.5,213.5 131.5,213.5 133.5,213.5C 133.662,215.527 133.495,217.527 133,219.5C 132.617,220.056 132.117,220.389 131.5,220.5C 128.833,220.5 126.167,220.5 123.5,220.5C 125.607,219.532 127.941,219.198 130.5,219.5C 130.5,217.833 130.5,216.167 130.5,214.5C 129.209,214.737 128.209,214.404 127.5,213.5 Z"/></g>
<g><path style="opacity:0.71" fill="#897164" d="M 143.5,212.5 C 143.396,214.703 142.73,216.703 141.5,218.5C 140.833,218.833 140.167,219.167 139.5,219.5C 139.5,219.167 139.5,218.833 139.5,218.5C 140.846,216.463 142.18,214.463 143.5,212.5 Z"/></g>
<g><path style="opacity:1" fill="#703212" d="M 148.5,206.5 C 148.489,208.547 148.156,210.547 147.5,212.5C 147.747,213.713 148.414,214.38 149.5,214.5C 148.611,217.77 147.277,220.77 145.5,223.5C 145.5,222.167 145.5,220.833 145.5,219.5C 143.142,219.253 141.142,219.919 139.5,221.5C 139.5,220.833 139.167,220.5 138.5,220.5C 138.5,219.833 138.833,219.5 139.5,219.5C 140.167,219.167 140.833,218.833 141.5,218.5C 142.376,218.631 143.043,218.298 143.5,217.5C 145.383,213.816 147.05,210.149 148.5,206.5 Z"/></g>
<g><path style="opacity:0.2" fill="#aea1a0" d="M 152.5,218.5 C 152.573,220.027 151.906,221.027 150.5,221.5C 150.427,219.973 151.094,218.973 152.5,218.5 Z"/></g>
<g><path style="opacity:0.22" fill="#bfb3a4" d="M 55.5,218.5 C 56.6737,219.514 57.3404,220.847 57.5,222.5C 55.8958,221.713 55.2291,220.38 55.5,218.5 Z"/></g>
<g><path style="opacity:0.471" fill="#c3d2e8" d="M 190.5,208.5 C 190.833,208.5 191.167,208.5 191.5,208.5C 188.833,211.5 186.167,214.5 183.5,217.5C 179.353,221.315 174.686,224.315 169.5,226.5C 177.064,221.278 184.064,215.278 190.5,208.5 Z"/></g>
<g><path style="opacity:1" fill="#a0380c" d="M 123.5,220.5 C 126.167,220.5 128.833,220.5 131.5,220.5C 131.5,220.833 131.5,221.167 131.5,221.5C 125.796,222.007 120.129,222.84 114.5,224C 118.942,225.174 123.275,226.341 127.5,227.5C 119.124,227.296 110.79,226.629 102.5,225.5C 101.833,225.5 101.167,225.5 100.5,225.5C 100.082,224.778 99.4158,224.278 98.5,224C 106.852,222.582 115.185,221.415 123.5,220.5 Z"/></g>
<g><path style="opacity:0.082" fill="#aca096" d="M 150.5,221.5 C 150.573,223.027 149.906,224.027 148.5,224.5C 148.427,222.973 149.094,221.973 150.5,221.5 Z"/></g>
<g><path style="opacity:1" fill="#8190b7" d="M 183.5,217.5 C 184.525,217.897 184.692,218.563 184,219.5C 182.624,220.705 181.458,222.038 180.5,223.5C 179.415,225.587 177.749,226.92 175.5,227.5C 173.973,227.427 172.973,228.094 172.5,229.5C 171.5,229.5 170.5,229.5 169.5,229.5C 169.5,228.5 169.5,227.5 169.5,226.5C 174.686,224.315 179.353,221.315 183.5,217.5 Z"/></g>
<g><path style="opacity:0.239" fill="#c0b6ad" d="M 57.5,222.5 C 58.6737,223.514 59.3404,224.847 59.5,226.5C 57.8958,225.713 57.2291,224.38 57.5,222.5 Z"/></g>
<g><path style="opacity:1" fill="#594634" d="M 57.5,215.5 C 59.0709,217.635 60.4043,219.968 61.5,222.5C 61.5,223.167 61.5,223.833 61.5,224.5C 60.6618,224.842 60.3284,225.508 60.5,226.5C 60.1667,226.5 59.8333,226.5 59.5,226.5C 59.3404,224.847 58.6737,223.514 57.5,222.5C 57.3404,220.847 56.6737,219.514 55.5,218.5C 55.3433,217.127 55.51,215.793 56,214.5C 56.3826,215.056 56.8826,215.389 57.5,215.5 Z"/></g>
<g><path style="opacity:1" fill="#8a250a" d="M 131.5,221.5 C 131.5,223.833 131.5,226.167 131.5,228.5C 130.292,227.766 128.959,227.433 127.5,227.5C 123.275,226.341 118.942,225.174 114.5,224C 120.129,222.84 125.796,222.007 131.5,221.5 Z"/></g>
<g><path style="opacity:1" fill="#cc7a3d" d="M 145.5,223.5 C 145.167,223.5 144.833,223.5 144.5,223.5C 142.417,224.588 140.251,225.588 138,226.5C 137.517,225.552 137.351,224.552 137.5,223.5C 137.5,223.167 137.5,222.833 137.5,222.5C 138.167,222.167 138.833,221.833 139.5,221.5C 141.142,219.919 143.142,219.253 145.5,219.5C 145.5,220.833 145.5,222.167 145.5,223.5 Z"/></g>
<g><path style="opacity:1" fill="#6d2a12" d="M 133.5,213.5 C 134.152,214.449 134.486,215.615 134.5,217C 132.928,222.298 132.094,227.798 132,233.5C 128.674,236.836 125.841,240.502 123.5,244.5C 123.5,243.833 123.5,243.167 123.5,242.5C 123.343,241.127 123.51,239.793 124,238.5C 125.518,237.837 126.685,236.837 127.5,235.5C 130.59,234.335 131.924,232.002 131.5,228.5C 131.5,226.167 131.5,223.833 131.5,221.5C 131.5,221.167 131.5,220.833 131.5,220.5C 132.117,220.389 132.617,220.056 133,219.5C 133.495,217.527 133.662,215.527 133.5,213.5 Z"/></g>
<g><path style="opacity:1" fill="#9a5c2a" d="M 137.5,223.5 C 137.351,224.552 137.517,225.552 138,226.5C 140.251,225.588 142.417,224.588 144.5,223.5C 142.927,226.893 140.26,228.226 136.5,227.5C 136.232,225.901 136.566,224.568 137.5,223.5 Z"/></g>
<g><path style="opacity:1" fill="#fcf0d6" d="M 63.5,223.5 C 64.8734,223.343 66.2068,223.51 67.5,224C 71.1617,229.063 76.1617,230.896 82.5,229.5C 79.7131,230.477 76.7131,230.81 73.5,230.5C 71.7085,230.634 70.0418,230.301 68.5,229.5C 66.5867,227.709 64.92,225.709 63.5,223.5 Z"/></g>
<g><path style="opacity:1" fill="#b48559" d="M 61.5,222.5 C 62.1667,222.833 62.8333,223.167 63.5,223.5C 64.92,225.709 66.5867,227.709 68.5,229.5C 67.6457,230.632 67.6457,231.965 68.5,233.5C 65.7565,230.764 63.4231,227.764 61.5,224.5C 61.5,223.833 61.5,223.167 61.5,222.5 Z"/></g>
<g><path style="opacity:1" fill="#e07e25" d="M 94.5,224.5 C 94.8333,224.5 95.1667,224.5 95.5,224.5C 97.1172,225.038 98.7839,225.371 100.5,225.5C 101.167,225.5 101.833,225.5 102.5,225.5C 106.204,227.091 110.204,227.924 114.5,228C 114.833,228.333 115.167,228.667 115.5,229C 113.709,229.415 112.376,230.415 111.5,232C 113.286,232.196 114.619,233.029 115.5,234.5C 109.303,235.961 103.137,236.294 97,235.5C 95.955,236.373 95.1217,237.373 94.5,238.5C 93.8333,238.5 93.5,238.833 93.5,239.5C 92.5184,242.962 92.185,246.629 92.5,250.5C 90.7839,250.371 89.1172,250.038 87.5,249.5C 85.8113,248.696 84.1446,247.696 82.5,246.5C 81.1666,243.507 79.1666,241.173 76.5,239.5C 80.226,239.823 83.8927,239.489 87.5,238.5C 82.9872,237.624 78.6539,236.291 74.5,234.5C 82.3625,235.29 88.8625,232.623 94,226.5C 94.4643,225.906 94.631,225.239 94.5,224.5 Z"/></g>
<g><path style="opacity:0.063" fill="#c8d7f0" d="M 175.5,227.5 C 175.027,228.906 174.027,229.573 172.5,229.5C 172.973,228.094 173.973,227.427 175.5,227.5 Z"/></g>
<g><path style="opacity:0.396" fill="#c0b2a7" d="M 59.5,226.5 C 59.8333,226.5 60.1667,226.5 60.5,226.5C 61.5294,228.517 62.5294,230.517 63.5,232.5C 61.1782,231.198 59.8449,229.198 59.5,226.5 Z"/></g>
<g><path style="opacity:0.435" fill="#9f8f7b" d="M 144.5,227.5 C 142.383,229.655 139.716,230.655 136.5,230.5C 138.936,229.129 141.603,228.129 144.5,227.5 Z"/></g>
<g><path style="opacity:1" fill="#4c240f" d="M 61.5,224.5 C 63.4231,227.764 65.7565,230.764 68.5,233.5C 71.1263,236.302 73.4596,239.302 75.5,242.5C 77.1394,244.806 79.1394,246.806 81.5,248.5C 83.5889,250.91 85.5889,253.243 87.5,255.5C 88.4345,256.568 88.7678,257.901 88.5,259.5C 86.1432,259.337 83.8098,259.503 81.5,260C 80.6921,261.706 79.3588,262.539 77.5,262.5C 76.3991,261.402 75.0657,261.235 73.5,262C 72.1991,263.616 72.1991,265.116 73.5,266.5C 80.3134,267.491 87.3134,267.825 94.5,267.5C 95.9587,267.433 97.2921,267.766 98.5,268.5C 109.167,269.167 119.833,269.833 130.5,270.5C 119.5,270.5 108.5,270.5 97.5,270.5C 89.6772,269.671 81.6772,269.171 73.5,269C 72.7562,267.961 71.7562,267.461 70.5,267.5C 70.448,265.097 70.7814,262.764 71.5,260.5C 76.0058,259.957 80.3391,258.957 84.5,257.5C 84.7148,255.821 84.0481,254.821 82.5,254.5C 82.5,252.5 81.5,251.5 79.5,251.5C 78.5,250.167 77.5,248.833 76.5,247.5C 73.5367,243.202 70.2034,239.202 66.5,235.5C 66.1436,233.81 65.1436,232.81 63.5,232.5C 62.5294,230.517 61.5294,228.517 60.5,226.5C 60.3284,225.508 60.6618,224.842 61.5,224.5 Z"/></g>
<g><path style="opacity:0.835" fill="#9cb1d1" d="M 169.5,226.5 C 169.5,227.5 169.5,228.5 169.5,229.5C 170.5,229.5 171.5,229.5 172.5,229.5C 171.101,230.89 169.434,231.89 167.5,232.5C 168.85,231.176 168.683,230.176 167,229.5C 164.042,231.233 160.875,232.233 157.5,232.5C 161.182,229.992 165.182,227.992 169.5,226.5 Z"/></g>
<g><path style="opacity:1" fill="#7a8dbb" d="M 167.5,232.5 C 164.912,234.625 161.912,235.958 158.5,236.5C 157.325,236.719 156.325,236.386 155.5,235.5C 156.193,234.482 156.859,233.482 157.5,232.5C 160.875,232.233 164.042,231.233 167,229.5C 168.683,230.176 168.85,231.176 167.5,232.5 Z"/></g>
<g><path style="opacity:1" fill="#d4954f" d="M 94.5,224.5 C 94.631,225.239 94.4643,225.906 94,226.5C 88.8625,232.623 82.3625,235.29 74.5,234.5C 73.5,234.5 72.5,234.5 71.5,234.5C 70.609,233.89 69.609,233.557 68.5,233.5C 67.6457,231.965 67.6457,230.632 68.5,229.5C 70.0418,230.301 71.7085,230.634 73.5,230.5C 77.3112,231.645 81.3112,231.812 85.5,231C 88.883,229.314 91.883,227.147 94.5,224.5 Z"/></g>
<g><path style="opacity:0.373" fill="#a5958a" d="M 134.5,230.5 C 135.167,230.5 135.833,230.5 136.5,230.5C 135.488,231.872 134.488,233.205 133.5,234.5C 133.433,233.041 133.766,231.708 134.5,230.5 Z"/></g>
<g><path style="opacity:1" fill="#d7dce6" d="M 61.5,234.5 C 64.3584,236.124 65.0251,235.457 63.5,232.5C 65.1436,232.81 66.1436,233.81 66.5,235.5C 66.0283,238.358 67.0283,240.358 69.5,241.5C 66.4318,241.453 63.4318,240.953 60.5,240C 54.2881,237.392 48.2881,234.558 42.5,231.5C 42.1961,230.85 41.8627,230.183 41.5,229.5C 46.2971,229.212 50.6305,230.712 54.5,234C 56.8098,234.497 59.1432,234.663 61.5,234.5 Z"/></g>
<g><path style="opacity:1" fill="#95a9cf" d="M 157.5,232.5 C 156.859,233.482 156.193,234.482 155.5,235.5C 156.325,236.386 157.325,236.719 158.5,236.5C 157.22,237.931 155.553,238.598 153.5,238.5C 150.001,239.444 146.668,239.444 143.5,238.5C 144.5,237.833 145.5,237.167 146.5,236.5C 149.95,234.792 153.617,233.459 157.5,232.5 Z"/></g>
<g><path style="opacity:1" fill="#763217" d="M 68.5,233.5 C 69.609,233.557 70.609,233.89 71.5,234.5C 72.9314,236.027 74.2648,237.694 75.5,239.5C 75.5,240.5 75.5,241.5 75.5,242.5C 73.4596,239.302 71.1263,236.302 68.5,233.5 Z"/></g>
<g><path style="opacity:1" fill="#ba5319" d="M 113.5,236.5 C 110.833,237.106 108.166,237.939 105.5,239C 108.522,239.098 111.189,239.932 113.5,241.5C 110.161,241.11 106.827,240.61 103.5,240C 103.043,239.586 102.709,239.086 102.5,238.5C 105.94,236.777 109.606,236.11 113.5,236.5 Z"/></g>
<g><path style="opacity:1" fill="#a03a0f" d="M 71.5,234.5 C 72.5,234.5 73.5,234.5 74.5,234.5C 78.6539,236.291 82.9872,237.624 87.5,238.5C 83.8927,239.489 80.226,239.823 76.5,239.5C 76.1667,239.5 75.8333,239.5 75.5,239.5C 74.2648,237.694 72.9314,236.027 71.5,234.5 Z"/></g>
<g><path style="opacity:1" fill="#912b09" d="M 127.5,235.5 C 126.685,236.837 125.518,237.837 124,238.5C 123.51,239.793 123.343,241.127 123.5,242.5C 122.5,242.5 121.5,242.5 120.5,242.5C 118.393,241.532 116.059,241.198 113.5,241.5C 111.189,239.932 108.522,239.098 105.5,239C 108.166,237.939 110.833,237.106 113.5,236.5C 118.203,236.563 122.87,236.229 127.5,235.5 Z"/></g>
<g><path style="opacity:0.973" fill="#b2a9a8" d="M 66.5,235.5 C 70.2034,239.202 73.5367,243.202 76.5,247.5C 74.1667,245.5 71.8333,243.5 69.5,241.5C 67.0283,240.358 66.0283,238.358 66.5,235.5 Z"/></g>
<g><path style="opacity:1" fill="#a7b9d3" d="M 143.5,238.5 C 146.668,239.444 150.001,239.444 153.5,238.5C 149.58,240.828 145.246,242.161 140.5,242.5C 137.753,242.813 135.086,242.48 132.5,241.5C 135.937,239.612 139.604,238.612 143.5,238.5 Z"/></g>
<g><path style="opacity:0.882" fill="#ccd5e5" d="M 132.5,236.5 C 132.281,237.675 132.614,238.675 133.5,239.5C 137.688,237.862 142.022,236.862 146.5,236.5C 145.5,237.167 144.5,237.833 143.5,238.5C 139.604,238.612 135.937,239.612 132.5,241.5C 135.086,242.48 137.753,242.813 140.5,242.5C 136.79,244.136 132.79,244.802 128.5,244.5C 130.545,243.077 131.545,241.077 131.5,238.5C 131.328,237.508 131.662,236.842 132.5,236.5 Z"/></g>
<g><path style="opacity:1" fill="#9a4b1b" d="M 94.5,238.5 C 95.8221,238.33 96.9887,238.663 98,239.5C 98.4994,244.823 98.666,250.156 98.5,255.5C 98.5,259.167 98.5,262.833 98.5,266.5C 97.883,257.598 96.883,248.598 95.5,239.5C 94.5052,244.792 94.1718,250.125 94.5,255.5C 94.1667,255.5 93.8333,255.5 93.5,255.5C 93.5,250.167 93.5,244.833 93.5,239.5C 93.5,238.833 93.8333,238.5 94.5,238.5 Z"/></g>
<g><path style="opacity:1" fill="#c97635" d="M 75.5,239.5 C 75.8333,239.5 76.1667,239.5 76.5,239.5C 79.1666,241.173 81.1666,243.507 82.5,246.5C 84.1446,247.696 85.8113,248.696 87.5,249.5C 85.4352,249.483 83.4352,249.15 81.5,248.5C 79.1394,246.806 77.1394,244.806 75.5,242.5C 75.5,241.5 75.5,240.5 75.5,239.5 Z"/></g>
<g><path style="opacity:1" fill="#5b1704" d="M 98.5,266.5 C 98.5,266.833 98.5,267.167 98.5,267.5C 98.5,267.833 98.5,268.167 98.5,268.5C 97.2921,267.766 95.9587,267.433 94.5,267.5C 94.5,263.5 94.5,259.5 94.5,255.5C 94.1718,250.125 94.5052,244.792 95.5,239.5C 96.883,248.598 97.883,257.598 98.5,266.5 Z"/></g>
<g><path style="opacity:1" fill="#db7928" d="M 102.5,225.5 C 110.79,226.629 119.124,227.296 127.5,227.5C 128.959,227.433 130.292,227.766 131.5,228.5C 131.924,232.002 130.59,234.335 127.5,235.5C 122.87,236.229 118.203,236.563 113.5,236.5C 109.606,236.11 105.94,236.777 102.5,238.5C 102.709,239.086 103.043,239.586 103.5,240C 106.827,240.61 110.161,241.11 113.5,241.5C 116.059,241.198 118.393,241.532 120.5,242.5C 119.723,245.112 118.056,246.945 115.5,248C 110.428,248.678 105.428,249.678 100.5,251C 101.905,252.269 103.571,252.769 105.5,252.5C 105.5,253.5 105.5,254.5 105.5,255.5C 104.566,256.568 104.232,257.901 104.5,259.5C 105.5,259.5 106.5,259.5 107.5,259.5C 106.817,261.176 105.483,261.843 103.5,261.5C 103.5,259.5 103.5,257.5 103.5,255.5C 101.833,255.5 100.167,255.5 98.5,255.5C 98.666,250.156 98.4994,244.823 98,239.5C 96.9887,238.663 95.8221,238.33 94.5,238.5C 95.1217,237.373 95.955,236.373 97,235.5C 103.137,236.294 109.303,235.961 115.5,234.5C 114.619,233.029 113.286,232.196 111.5,232C 112.376,230.415 113.709,229.415 115.5,229C 115.167,228.667 114.833,228.333 114.5,228C 110.204,227.924 106.204,227.091 102.5,225.5 Z"/></g>
<g><path style="opacity:1" fill="#af541f" d="M 120.5,242.5 C 121.5,242.5 122.5,242.5 123.5,242.5C 123.5,243.167 123.5,243.833 123.5,244.5C 121.909,246.633 119.909,248.299 117.5,249.5C 114.121,249.888 110.788,250.555 107.5,251.5C 107.863,252.183 108.196,252.85 108.5,253.5C 107.5,254.167 106.5,254.833 105.5,255.5C 105.5,254.5 105.5,253.5 105.5,252.5C 103.571,252.769 101.905,252.269 100.5,251C 105.428,249.678 110.428,248.678 115.5,248C 118.056,246.945 119.723,245.112 120.5,242.5 Z"/></g>
<g><path style="opacity:1" fill="#69210b" d="M 117.5,249.5 C 117.196,250.15 116.863,250.817 116.5,251.5C 113.813,252.26 111.147,252.927 108.5,253.5C 108.196,252.85 107.863,252.183 107.5,251.5C 110.788,250.555 114.121,249.888 117.5,249.5 Z"/></g>
<g><path style="opacity:0.506" fill="#aa9c8a" d="M 79.5,251.5 C 81.5,251.5 82.5,252.5 82.5,254.5C 81.1667,253.833 80.1667,252.833 79.5,251.5 Z"/></g>
<g><path style="opacity:0.098" fill="#b9aeaa" d="M 131.5,238.5 C 131.545,241.077 130.545,243.077 128.5,244.5C 125.188,247.146 122.188,250.146 119.5,253.5C 121.631,254.169 123.631,254.835 125.5,255.5C 123.167,255.5 120.833,255.5 118.5,255.5C 118.343,254.127 118.51,252.793 119,251.5C 123.398,247.271 127.564,242.938 131.5,238.5 Z"/></g>
<g><path style="opacity:1" fill="#7b2f11" d="M 81.5,248.5 C 83.4352,249.15 85.4352,249.483 87.5,249.5C 87.5,251.5 87.5,253.5 87.5,255.5C 85.5889,253.243 83.5889,250.91 81.5,248.5 Z"/></g>
<g><path style="opacity:1" fill="#6b2b0e" d="M 108.5,253.5 C 111.008,255.237 114.008,256.07 117.5,256C 118.056,256.383 118.389,256.883 118.5,257.5C 115.887,256.565 113.221,256.398 110.5,257C 108.881,257.236 107.881,258.069 107.5,259.5C 106.5,259.5 105.5,259.5 104.5,259.5C 104.232,257.901 104.566,256.568 105.5,255.5C 106.5,254.833 107.5,254.167 108.5,253.5 Z"/></g>
<g><path style="opacity:0.565" fill="#9f8f86" d="M 82.5,254.5 C 84.0481,254.821 84.7148,255.821 84.5,257.5C 80.3391,258.957 76.0058,259.957 71.5,260.5C 73.1144,257.939 75.2811,257.272 78,258.5C 79.6303,257.287 81.4636,256.454 83.5,256C 82.944,255.617 82.6107,255.117 82.5,254.5 Z"/></g>
<g><path style="opacity:1" fill="#cd7630" d="M 93.5,239.5 C 93.5,244.833 93.5,250.167 93.5,255.5C 93.815,259.371 93.4816,263.038 92.5,266.5C 92.6658,261.821 92.4992,257.155 92,252.5C 91.385,255.303 90.2183,257.636 88.5,259.5C 88.7678,257.901 88.4345,256.568 87.5,255.5C 87.5,253.5 87.5,251.5 87.5,249.5C 89.1172,250.038 90.7839,250.371 92.5,250.5C 92.185,246.629 92.5184,242.962 93.5,239.5 Z"/></g>
<g><path style="opacity:1" fill="#8e5627" d="M 77.5,262.5 C 74.5,262.167 73.1667,263.5 73.5,266.5C 72.1991,265.116 72.1991,263.616 73.5,262C 75.0657,261.235 76.3991,261.402 77.5,262.5 Z"/></g>
<g><path style="opacity:1" fill="#e0892d" d="M 92.5,266.5 C 87.1254,266.828 81.7921,266.495 76.5,265.5C 78.0453,264.548 79.712,264.215 81.5,264.5C 81.5,263.5 81.5,262.5 81.5,261.5C 84.1522,261.59 86.4855,260.924 88.5,259.5C 90.2183,257.636 91.385,255.303 92,252.5C 92.4992,257.155 92.6658,261.821 92.5,266.5 Z"/></g>
<g><path style="opacity:1" fill="#e18d2a" d="M 98.5,255.5 C 100.167,255.5 101.833,255.5 103.5,255.5C 103.5,257.5 103.5,259.5 103.5,261.5C 105.483,261.843 106.817,261.176 107.5,259.5C 111.867,257.839 115.867,258.505 119.5,261.5C 120.833,261.167 122.167,260.833 123.5,260.5C 125.39,261.612 127.39,262.446 129.5,263C 130.731,264.183 130.731,265.349 129.5,266.5C 119.219,267.476 108.886,267.809 98.5,267.5C 98.5,267.167 98.5,266.833 98.5,266.5C 98.5,262.833 98.5,259.167 98.5,255.5 Z"/></g>
<g><path style="opacity:0.375" fill="#b2a697" d="M 127.5,256.5 C 133.962,258.113 136.462,262.113 135,268.5C 134.617,269.056 134.117,269.389 133.5,269.5C 135.836,263.496 133.836,259.83 127.5,258.5C 127.5,257.833 127.5,257.167 127.5,256.5 Z"/></g>
<g><path style="opacity:0.294" fill="#b3a69f" d="M 71.5,260.5 C 70.7814,262.764 70.448,265.097 70.5,267.5C 69.8529,266.726 69.5195,265.726 69.5,264.5C 69.3402,262.645 70.0069,261.312 71.5,260.5 Z"/></g>
<g><path style="opacity:1" fill="#b97430" d="M 93.5,255.5 C 93.8333,255.5 94.1667,255.5 94.5,255.5C 94.5,259.5 94.5,263.5 94.5,267.5C 87.3134,267.825 80.3134,267.491 73.5,266.5C 73.1667,263.5 74.5,262.167 77.5,262.5C 79.3588,262.539 80.6921,261.706 81.5,260C 83.8098,259.503 86.1432,259.337 88.5,259.5C 86.4855,260.924 84.1522,261.59 81.5,261.5C 81.5,262.5 81.5,263.5 81.5,264.5C 79.712,264.215 78.0453,264.548 76.5,265.5C 81.7921,266.495 87.1254,266.828 92.5,266.5C 93.4816,263.038 93.815,259.371 93.5,255.5 Z"/></g>
<g><path style="opacity:1" fill="#5a3713" d="M 121.5,258.5 C 123.389,257.258 125.389,257.258 127.5,258.5C 133.836,259.83 135.836,263.496 133.5,269.5C 132.391,269.557 131.391,269.89 130.5,270.5C 119.833,269.833 109.167,269.167 98.5,268.5C 109.172,268.667 119.839,268.5 130.5,268C 132.325,266.534 132.825,264.701 132,262.5C 128.567,260.877 125.067,259.543 121.5,258.5 Z"/></g>
<g><path style="opacity:1" fill="#c07e36" d="M 118.5,257.5 C 119.209,258.404 120.209,258.737 121.5,258.5C 125.067,259.543 128.567,260.877 132,262.5C 132.825,264.701 132.325,266.534 130.5,268C 119.839,268.5 109.172,268.667 98.5,268.5C 98.5,268.167 98.5,267.833 98.5,267.5C 108.886,267.809 119.219,267.476 129.5,266.5C 130.731,265.349 130.731,264.183 129.5,263C 127.39,262.446 125.39,261.612 123.5,260.5C 122.167,260.833 120.833,261.167 119.5,261.5C 115.867,258.505 111.867,257.839 107.5,259.5C 107.881,258.069 108.881,257.236 110.5,257C 113.221,256.398 115.887,256.565 118.5,257.5 Z"/></g>
<g><path style="opacity:0.502" fill="#8c7369" d="M 70.5,267.5 C 71.7562,267.461 72.7562,267.961 73.5,269C 81.6772,269.171 89.6772,269.671 97.5,270.5C 89.16,270.666 80.8267,270.5 72.5,270C 71.6195,269.292 70.9528,268.458 70.5,267.5 Z"/></g>
<g><path style="opacity:0.51" fill="#907c70" d="M 133.5,269.5 C 133.389,270.117 133.056,270.617 132.5,271C 120.659,271.826 108.993,271.659 97.5,270.5C 108.5,270.5 119.5,270.5 130.5,270.5C 131.391,269.89 132.391,269.557 133.5,269.5 Z"/></g>
</g></svg>
